<?xml version="1.0" encoding="UTF-8"?>
<svg version="1.1" viewBox="0 0 2048 1805" width="3900" height="3439" xmlns="http://www.w3.org/2000/svg">
<path transform="translate(0)" d="m0 0h2048v1805h-2048z" fill="none"/>
<path transform="translate(507,846)" d="m0 0h1v9l-2 5-1 10-5 25-6 18-8 20 7-5 3-3 5-3 5-12v-2h-3l2-6 4-5 3-6 1-11 5-7 1 2-1 4 4-4h2l2-4 7-9 6-9 2-1-2 4-11 19-5 8 4-3-2 4-9 11-1 4 5-3 11-14 14-18 7-10 1 2-10 14-10 13-9 11-6 9 9-8h2l2-4 12-12v3l-6 9-11 13-7 10-2 4 8-7 6-5 10-13 3-6 9-8 4 2-5 3-5 7 30-15 3 1-22 11-2 5-5 5-2 3 41-20 4-1v2l-28 13-6 3h-2l-2 5-4 5 9-1-4 8-3 5 4-1v2l-6 3 9-3h3l-3 4 35-15 5-2v2l-29 13-15 7-1 4 8-3 11-5 56-25 25-10 3 1-12 5-28 12-40 18-10 5 4 1 34-15 49-21 4-1v-8l-3-3-3-1h-10l-16 4-7 2 3-3 8-3 9-2h15l5 3 3 9-4 9-2-1 1-3-20 8-76 33v3l-9 6-1 2 30-13 38-16 3 1-42 18-14 7-3 5-8 7 19-7 29-13 38-16 15-6h2l-2-10h2l2 9h2l-1-8h2l2-4 1 7 14-14 5-12 3-3 4-8 5-16 5-3 1 2v4l4-8 2 1 1 4-2 3 2-2 5 1 2 10-1 2-4-1-3-1-2 6-7 15-1 4 2 1-2 5-8 13-8 11-8 12-2 4h-2l-2-5-1 1 1 11-2 1v27l3 15 2 13v12l3 12 5 10 3-4-1-7 2-6-3-5 1-7v-8l-4-2 2-1 4 2-1 8 4 2-2 8h2l2-5 5-5 1 4-7 11-2 5 4-5 6-8 2 2-4 6-9 16-1 2h-3l2 2 6-10 7-11 1 3-9 17 1 1 8-11 1 3-6 9-3 7-2 4 3-3 4-6 7-10 1 3-6 8-3 6 6-4 5-5-2 5-6 9-4 10 4-4h2l2-4 4-5 2 1-8 10-4 8 2 13 3 7 2 9 1 2 4-2 3-5 1-5-3-4 3-6 3-2-2 4-1 5 2 2-1 7-6 8h-2l2 9 22-10 16-5-4-15-5-14-2-9-3-10-5-16-7-19-5-16-1-4-2 1-1 7-4 3v-5l-7 1-2-3 5-3 4-2 3-11 2-22 2-39 1-12 2-9 2-17 1-10 1-8h2l1 3v15l-3 21-2 13-3 48v17l3 14 4 7 2 8 3 2v2h-2l3 11 11 34 10 32 1 7-3 1 5 15-3 3h-11l-18 6-3 3-8 14-3 6-13 6h-2l2 11 1 7v24l-2 17v31l2 23 3 14 2 23v16l-1 21-3 6-1-4 1-5v-30l-2-15-2-20-5-18-1-13-2-6-2-13-1 7h-1l-2-45-3-20-4-19v-2h2l9 39v31l4 7 1 9v10h2v-73l-4-25v-5l12-5h-7l-10 3-5 3-8-1-2-3-3 5-6 4 1-4h-2l-1-7v-19l2-7 3-26 2-10h1v15l4-1 5-8 6-8v3l-8 16-5 8-1 4h4l-2 5-5 7h6l-1 7 4 1-2 5 2 8 16-5 17-5 8-1-1-5-5-1-3-9-3-8-7-24-5-19-6-15-8-15-1-3-1-22-5-26-1-12v-16l2-8-1-8-1-4-16 5-39 16-36 15-2 1 2 2-7 4-1 2 19-7 3 1-20 8h3v2l-15 6-2 3h1l10-2 1 3-21 9-3 4 11-5 5-2 3 1h2l3 1-15 6-8 1-4 4-2-1 1-5 6-8 9-10 7-9-8 7-10 10-4 6-5 1v-3h2l2-5 9-11 5-7-6 4-9 10-3 1-2-1v22l4-1 2 2-2 9-3 10-2 25 1-11 3-5 3-10 1 4-1 6 2-3 2-9 3-7h-3v-2l17-7 13-5 5-1-4 3-6 3 2 1-10 4-11 4-1 3 12-4 30-2 10-4 3 1-5 3 16 1h5l5 2v1l-14 1-6 1 2-2h-19l-5 1v-2l-2 1-16 2-7 1 1 7 3 1-5 3 1 2-3 3-2 7 2 1-4 4-4 9v2l5-5 2-1v2l5-1-3 3-4 2-3 7h3l8-8-2 5 9-2v3l-16 8-3 2h-4l-2 5-11 20-1 6 8-10v3l-1 3 13-7 3-3 9-3 24-12 24-11 2 1-16 8-33 16-13 7-1 2 5-2 3 1-11 6-4 3v-3h-6l-2-1-2 5-2 3-2 7-2 5-2 11v4l10 4 16 3 10 1 60 3 2-1h9l1-5h-12l-1 4h-11v-1h8v-2h-18l-46-3 3-4 16-8 35-16 16-8 16-6 4-3-1 5-11 11v-3l4-5-18 7-30 14-23 11h2l3 1-3 2 2 1h6l6-4 35-15 10-5 3-2 1 1 16-4h2l-1 3-6 3v-2l-15 5-8 7-2 1 2-4h-3l-30 13-5 1v2l13-4 4 1-9 3h17l13-4 4-2 16-2v2l-22 6-2 1h17l9-2 1 2 18 1v5l-5 2h-12l1 3h-6l-1 3-1-2h-59v-1l-7-1v2h-17v-1l11-1-12-1-9 11-9 9 2 2-6 3-2-1 1 8 5-5 3-4h2v2l5-3 2 1-2 4-8 6-3 9v20l-3-4-1 4-1 13h-2v10l-1 3h-3l-3 9-8 21-3 12-4 4-6 22-5 26v5l1 1h11l13-4 3-1-3-2 7-2h5l4-2h3l-1 3-15 6-9 3 8-1 9-1-3 3-24 9 23-1-1 3-17 7 3 2-9 5v1l9 1-2 3-13 6 9 1 2 3-2 2-1 7h5v2l-7 4-2 2-7 1-6 3 11-2 2-1 7 1v2l-9 4-3 6-14 10 6 1v1l8 1v4l-2 1v5l-22 12-6 2v2l19-7 9-2 7-14 10-23h3l2-5 14-28 8-14 2-1-3 10-6 11-8 16-9 19-5 15-3 12v5l-2 7-5 12-5 9-8-2v2h2l-1 7-3 5v2l73 12 29 4 24 2h11l24-8v-3l9 1 7 2 12 1 9-2 12-1 1-4 3-53 3-34 1-4 1-15 1-4 1-13 3-9 2-10h2l-1 10-2 10-3 31-2 18-2 25-2 28-1 10v14 3l-3 3-2-1-16 1h-20l-3 18-1 2 6-3v-3l3-1h11l12 3 1-9 2-3h2l1 5v10l5 2 3 5 4 10 3 4 1 6-9 3-14 3-13 1h-12l-11 1h-9v-1l19-3v-2l-15 2-18 4h-5v2l8-2 4 1-1 1-7 1h-10v-3l15-4 5-1-13 2h-10l-4-2h-5l3-3 32-7-3-2 10-2 2-1 4-25h-18l-24 5-4 1v3h5l-4 2-8 2h-10l-3-1h-8l-1 1-15 1-1-1h-8l-2 1 12 5 16 7 11 7 6 4 3 4 3 2v3l4 2 4 5 14-3 27-4h3v2l-30 5 21-2-2 2-21 3-3 1 20 7 13 2-9-5-1-3 4-2 29-3 13-2h-9l-6-1v-1l16-1 16-3 39-5 26-3-11-3-1-2 10 2 23 6h6l1 2 7 2h12l-1 3 33 8 13 2v1h-9l-10-2h-6l-2 1 18 5 1 2 55 4 17 2 1 2h-10l-27-2h-12l15 2h14v3l30 1v2l7-1h9l13 4 7 3 41 3 13 1-18-2-35-3-5-1 2-2 44 4 83 8v2l-46-4-17-1 39 4 16 1v2l25 2 6 1v1l-20-1-56-5 8 2 20 2v1h-16l9 2 94 8 3 2-39-3-49-4h-6l16 2 44 4 4 1v2h27v1l25 3 18 2 1 2h-22l1-2-77-7-19-1 15 2-4 2 5 2 25 2v1h-17l12 2 67 7 43 5 1 2-20-2-72-8-17-1 24 8 46 5v-4l4 1 2 4 16 1 25 3v2l-15-1-24-3 1 4 14 2 25 3v-3h4l3 3 9 2-4 2 2 3 1 8 1 1v6l2 5v3h-5l-1-1-3-18-4-7-4-2-38-4-2-1 2 4v3l10 3 25 9 11 5 1 3h-5l-14-7-18-7-9-3 2 4v3l6 2 4 3h-7l-6-5-5-9-19-7-24-6-7-1v-1l5-1-12-4-19-2h-13l-20-3-21-2-6-1 1-2 19 2 2 1v-2l25 4 25 2-27-9-39-3h-15l-14-2-1-2-10-3v-1l7-1-2-2h23l17 2h5l-17-2-30-2v-2l-18-2h-5l2 3-15 3 4 1 17 1v2h-12l-10-1h-13l3 2 24 6h10l1 3 2 1v2l-35 1-19 2v1l-17 2-9 2 10 1h19l17-1 3-1h57v2l-21 3-11 2-1 1 47 5h11l15 2-1 2h-10l-56-6-8-1h-12l-30 7-2 1 1 1 19 1v1l-7 1h-11l-6-3 4-4 25-6 3-1-32-3-17 1-6 1v1l-11-1-7-3 2-2 22-5 5-1h-23l-7-2v-3-1l-39-7-2-1v3l-20-4-10-3v-2l-28-7h-31l-7 1 71 16 21 5 28 7 3 2v2l-8-1-8-2v2l-16-2-37-8-61-15-35-9-42-11-30-9 26 26 9 7 11 11 9 7 2 2-2 1-13-1-16-2 29 6 9 2v2h-12l-13-3-9-1 42 9v3l-11-1-33-6-17-2 34 7 5 1h7v2l12 3 2 2-16-2-25 14-17 10-27 15-17 11-8 6-5 4 2-4 8-7 19-12 25-14 22-13 16-10 4-1v-2l-11 3-3-1 6-2-6-2-44-9v-3l12 1 29 4 8 1-35-7-16-3v-2h3v-3l-2-1v-2l-4-1 1-2h3l-35-12-10-3 4-1 43 14-1-4-14-4v-1l12 1-8-3-46-13-27-6-5-2-32-7v-2l25 5 13 2 1 3 10 1 38 10 31 9-2-5-11-4-5-1v-2l-3-2 9 1 8 2-1-6-26-5-1-3-32-7-1-2-47-8v-2l42 6-31-6-7-1v-2l11 1 37 7 2 1v2h6v-1l12 1 25 6 4 1v-3l-17-4-14-3v-2l-9-1h-3l6 2-3 1-54-9v-2h3v-2l17 2 30 5 16 2h3l-8-3-62-9v-2l24 3 27 4-9-3-28-5v-2l21 3 9 2v-2l-21-3v-1h12l-4-2 6-1-5-5-9-7-16-8-20-8-7-1-6-4-19-6-20-1-1-3 8-1-7-3-1-2 10 1 12 2h27v2h-14l-1 1 3 3-6 1 18 6-1-6 8 2h11l5 1-1-2 10-3 18-1-1 3-10 4 11-3 7-4 8-3-1-1-48-6-49-8-21-3-7-2-1 3-1-3 3-11-19-4-14-4-3 23 7 4 7 1v3l26 1-1 3-10 2-14 6h-2v2l19-7h6l1 3v9l3 4 2 9-5-2-3 1-2-1-2 4-2 1h-8l-6-1-9 2 1 6 7 1v3l-1 3h-14l9 2v3l-2 1h-20l-13 6 17 2 4 2-5 4-11 2-19 2-13 2-5 1-1 2 22 4v3l-10 1-54 1-16 1h-12v2h10l77 7 3 2h-9l-76-7-1 3-2 1-50 4-13 2 6 12 1 3 8-3h5v2l-10 4v9l-3 4h-4v-2l2-1v-8l-6 3v2l-7 4-8 1v-3l13-7h-19l-23 1-5 5 4-1-5 5-5 4-7 10-8 13 36-6 58-11 23-5h6l1 2-17 4 13 5 10 6 1 2-5-2-14-7-10-2 4 11 7 11 8 7-1 2-8-7-7-8-16-7-5-1 7 8 1 3 5 2 4 5-2 1-8-6-7-6-6-7v-2h9l10 3 4 1-4-7v-3l-39 9-24 4-16 4-15 1-19 9-16 5-21 6-2 1-11 1-2 4-6 7-4 2h-4v-2l5-3 5-7-15 6-10 9-11 7-9 2 1-2 8-4 15-12-7 1 3-3 4-2 2-4 4-3h2l1-5 5-4 7-3 11-9 11-7 2 1-13 11-4 4-6 9-8 7 10-3 14-14 5-6 5-5 6-5 2 2-8 8-7 8-8 10 9-3 9-9h2l2-4h2l2-4 5-6 5-5 8-9 4-6 4-1-1 5-11 12-7 8-7 7-6 7-3 3 32-10 6-7 1-2h2l1-4 10-15 8-11-6 4-9 10-10 15-6 8-7 1v-3l7-6 7-10 3-5h2l2-4h2l1-4 7-7h-10l-8 1-1-2 21-3 10-2 11-13 6-7 3-3h2l-2 6-2 3 19-4h4l-2-5 5 1 2 2 38-4 20-1v-2l-39-1-21-1-4-2v-2l8-2 41-5h-38l-13 2-6 4h-4l1-3 7-4 1-4 12-7 7 1 18-8 3-2-12-1-2-2v-3l11-3 22-4 5-2 6-1 4-2-1-2 5-1v-2l8-1v3h9l14-5 4 1 4-1v-2h-5v-1h9l10-2-1 3 8 2 7-1 10-5h4l-1 3-9 4-1 1 4 1h9l6-2 11-2 8-2v-6-3l2-5 2-7-14 3h-8v-1l17-2-3-3-9-1h-13l-23 3-24 4-1-1-9-1 6-7 2 1v2l8-1 4-3v2l7-2 14-1 5-4 10-18 8-13 1 3-10 17-8 14 4-2v2l8-2h6v-6h2v5l19 1v1l-10 2-3 2 15 2 3-2 1 1 6-1-3-3h-3l-1-4 5-21v-8l-3-1-3-3-5-2 3-1h4l4-15 4-10 5-15-1-1 3-10 5-9 3-4 2-6 5-8 6-12 3-5 6-26 13-44 5-18 5-9 10-36 4-13 6 1v-10l-2-25 3-1-5-22-2-13-1-4v-11l3 1v-2l-10 2-5 3-3-3 1-5 5-9 2-6v-10l3-9 1-6 2 3 6-19 2-13 2-1-1-5 1-3h-2l-1 2 2-10 3-7 2-1 3-14v-7l-1-1-2-38-2-12-2-1-5 14-4 10-6 10-5 15-3 12-4 18-1 14-3 21-1 3v21l-2 2-13-2-6-1h-14l1 7-1 6h13l13 3 1-11 3-1 1 3-2 5 1 1v6l-1 1h-9l-6-2h-10l-5 1-1 7 2-5h2l-1 6-6 13-3 8v8l4 4 2-3 3-10 2-2 1 1-1 9-3 6h3l-1 4-6 1-5-5-3-1-1-2v-10l4-13 2-2 2-7v-8l-1-3 1-12-3-2v-13l2-5 1-14 1-3 1-21 3-13 3-12 3-18v-8l4-12 6-10 4-10 4-11 3-10 5-17 9-24 5-20 2-12 4-21z" fill="#10183C"/>
<path transform="translate(700,1351)" d="m0 0h2l-1 10-2 10-3 31-2 18-2 25-2 28-1 10v14 3l-3 3-2-1-16 1h-20l-3 18-1 2 6-3v-3l3-1h11l12 3 1-9 2-3h2l1 5v10l5 2 3 5 4 10 3 4 1 6-9 3-14 3-13 1h-12l-11 1h-9v-1l19-3v-2l-15 2-18 4h-5v2l8-2 4 1-1 1-7 1h-10v-3l15-4 5-1-13 2h-10l-4-2h-5l3-3 32-7-3-2 10-2 2-1 4-25h-18l-24 5-4 1v3h5l-4 2-8 2h-10l-3-1h-8l-1 1-15 1-1-1h-8l-2 1 12 5 16 7 11 7 6 4 3 4 3 2v3l4 2 4 5 14-3 27-4h3v2l-30 5 21-2-2 2-21 3-3 1 20 7 13 2-9-5-1-3 4-2 29-3 13-2h-9l-6-1v-1l16-1 16-3 39-5 26-3-11-3-1-2 10 2 23 6h6l1 2 7 2h12l-1 3 33 8 13 2v1h-9l-10-2h-6l-2 1 18 5 1 2 55 4 17 2 1 2h-10l-27-2h-12l15 2h14v3l30 1v2l7-1h9l13 4 7 3 41 3 13 1-18-2-35-3-5-1 2-2 44 4 83 8v2l-46-4-17-1 39 4 16 1v2l25 2 6 1v1l-20-1-56-5 8 2 20 2v1h-16l9 2 94 8 3 2-39-3-49-4h-6l16 2 44 4 4 1v2h27v1l25 3 18 2 1 2h-22l1-2-77-7-19-1 15 2-4 2 5 2 25 2v1h-17l12 2 67 7 43 5 1 2-20-2-72-8-17-1 24 8 46 5v-4l4 1 2 4 16 1 25 3v2l-15-1-24-3 1 4 14 2 25 3v-3h4l3 3 9 2-4 2 2 3 1 8 1 1v6l2 5v3h-5l-1-1-3-18-4-7-4-2-38-4-2-1 2 4v3l10 3 25 9 11 5 1 3h-5l-14-7-18-7-9-3 2 4v3l6 2 4 3h-7l-6-5-5-9-19-7-24-6-7-1v-1l5-1-12-4-19-2h-13l-20-3-21-2-6-1 1-2 19 2 2 1v-2l25 4 25 2-27-9-39-3h-15l-14-2-1-2-10-3v-1l7-1-2-2h23l17 2h5l-17-2-30-2v-2l-18-2h-5l2 3-15 3 4 1 17 1v2h-12l-10-1h-13l3 2 24 6h10l1 3 2 1v2l-35 1-19 2v1l-17 2-9 2 10 1h19l17-1 3-1h57v2l-21 3-11 2-1 1 47 5h11l15 2-1 2h-10l-56-6-8-1h-12l-30 7-2 1 1 1 19 1v1l-7 1h-11l-6-3 4-4 25-6 3-1-32-3-17 1-6 1v1l-11-1-7-3 2-2 22-5 5-1h-23l-7-2v-3-1l-39-7-2-1v3l-20-4-10-3v-2l-28-7h-31l-7 1 71 16 21 5 28 7 3 2v2l-8-1-8-2v2l-16-2-37-8-61-15-35-9-42-11-30-9 26 26 9 7 11 11 9 7 2 2-2 1-13-1-16-2 29 6 9 2v2h-12l-13-3-9-1 42 9v3l-11-1-33-6-17-2 34 7 5 1h7v2l12 3 2 2-16-2-25 14-17 10-27 15-17 11-8 6-5 4 2-4 8-7 19-12 25-14 22-13 16-10 4-1v-2l-11 3-3-1 6-2-6-2-44-9v-3l12 1 29 4 8 1-35-7-16-3v-2h3v-3l-2-1v-2l-4-1 1-2h3l-35-12-10-3 4-1 43 14-1-4-14-4v-1l12 1-8-3-46-13-27-6-5-2-32-7v-2l25 5 13 2 1 3 10 1 38 10 31 9-2-5-11-4-5-1v-2l-3-2 9 1 8 2-1-6-26-5-1-3-32-7-1-2-47-8v-2l42 6-31-6-7-1v-2l11 1 37 7 2 1v2h6v-1l12 1 25 6 4 1v-3l-17-4-14-3v-2l-9-1h-3l6 2-3 1-54-9v-2h3v-2l17 2 30 5 16 2h3l-8-3-62-9v-2l24 3 27 4-9-3-28-5v-2l21 3 9 2v-2l-21-3v-1h12l-4-2 6-1-5-5-9-7-16-8-20-8-7-1-6-4-19-6-20-1-1-3 8-1-7-3-1-2 10 1 12 2h27v2h-14l-1 1 3 3-6 1 18 6-1-6 8 2h11l5 1-1-2 10-3 18-1-1 3-10 4 11-3 7-4 8-3-1-1-48-6-49-8-21-3-3-1v-2l13 1 39 7 49 7 24 2h11l24-8v-3l9 1 7 2 12 1 9-2 12-1 1-4 3-53 3-34 1-4 1-15 1-4 1-13 3-9z" fill="#10183C"/>
<path transform="translate(439,1472)" d="m0 0 10 2 18 4 6 1-3 14 1-2 28 4 49 8 48 6 3 2-13 5-6 4-9 2-4-1 14-5 1-2-4 1-14 1-8 2-1 3-9-1h-7l-8-3 1 6-7-1-12-5v-1l6-1-6-2v-1l11-1 8 1v-2l-27 1-21-3 8 4v1h-9l1 2 20 1 21 7 4 3 9 2 27 11 14 9 7 6 1 3-3 1 5 1v1h-10l12 2 2 1v2l-9-1-21-4v2l12 1 21 4 5 3-3 1-46-7-3-1v2l14 1 39 6 9 1 14 5-4 1-9-2-18-2-37-6-4-1v2h-3v2l13 1 41 7-14-3v-1l14 1 9 2v2l10 1 17 4 4 2v3l-7-1-22-5-9-1v1l-9-1v-2l-28-5-22-4v2l13 1 26 5-1 2-39-6-3-1v2l12 1 30 5 9 1-3 2 32 7 3 2-2 1 24 5 3 3 1 4-2 1-9-2 3 3 9 3 2 3v3l-7-1-42-12-30-7-1-2-18-3-20-4h-9l-3 5 8 1 28 6h11l2 1v3l8 1 15 4-4 1-21-5-37-8-12-2-1 2 11 2 39 9 11 1 1 3-10-1-8 4h-2v2l9 1 13 1 1 2h-11l-13-3-8 1 8 3 24 6 6 2-4 1-32-8-3-1h-8l-8 3 18 5 33 8 9 2-2 2h-4v2l3 1-11 1-26 7-33 10h-2v2l-11 2-29 9 16-3h5l-4 2-41 9-56 16-13 5-3-1 5-3 24-8 20-6h-7l3-2 20-3 24-7v-1h-16l-18 3-29 8-8 3-4-1-1-3 30-8 31-9 25-8-30 5-9 3-1 1-15 3-19 7-5 2h-7l4-4 11-4h4v-2l2-1h6v-2l-9 2-6 1-16 6-4 1h-8l-2-4 7-3 21-4v-1l-13-2-4-3 1-3-16 1v-3l13-3h2l-1-4-2-1 2-7v-4h-10l-2 4-3-1 1-4h-2l-1 6-2 6 15 1v1l-12 1-3 4-5 1-2 4h-4l-1-9 2-3v-8l-1-2-2-1 2-3h-9l-3 5h-3v-4l2-1-8-1v-1l9-1 3-1v2h14l4-2 1-9 9-3v3l5-5 3-1-50-2-36-3-11-2v-2l2-1h28v1l-20 1 12 2 31 2 29 1h22l10-6 1-1-28-1v-1l28-1-9-1-4-2-87-8v-2l28-2 54-1 10-1-4-2-16-3-2-1 1-3 9-2 15-2 20-2 7-3 1-1-10-2-11-1 3-3 11-5h20l2-2-11-3v-1h16v-2l-6-4-1-6 10-3 5 1h8l4-4 6-1 4 3-4-11-2-2v-11l-9 1-14 5h-2v-2l19-8 7-1 1-2h-19l-7-1v-3h-7l-8-5 3-21z" fill="#10183C"/>
<path transform="translate(1394,107)" d="m0 0h9l10 2 10 5 3 3h12l13 1 1 4-1 1-21 1-2 1-3 9-4 6-8 6-13 5-4 1h-17l-10-5-2-2v-7l7-8 10-5 17-4 13-2v-2l-10-2h-11l-16 4-10 4-8 6-11 8-10 9-14 14-9 11-9 10-9 11-9 10-7 11-4 5-3 7-5 6-6 7-4 1-1-1 1-7 10-15v-7l-4-9-5-8-4-5-7-8-10-7-8-4-16-7-16-4-20-3-12-1h-36l-25 3-26 6-32 11-16 8-4 3h-2l-2 8 1 14 6 18 1 2 10 4 3 2 1 9-5 6-2 1 1 3 8 5 2 2-1 4-5-1-8-4h-2l-5 10-6 1 1-8 2-7-16 1-11-4-11 1-16 5-9 5-10 8-11 16-4 11-1 5v14l4 15 7 13 12 13 12 10 19 13 15 10 12 9 4 4-1 6 6 2 8 6 2 3v5l-5 1-6-4-7-6-4 1-5 3h-11l-16 6-17 9-17 12-13 12-8 10-7 11-5 8-5 15-2 10v17l4 18 5 12 7 11 9 10 7 6 14 8 17 6 18 4-24-9-16-8-10-8-7-9-5-12-2-9-1-17 2-14 4-13 9-16 8-11 9-10 8-8 15-11 18-10 9-1-2 4-14 7-12 8-11 8-5 5-13 16-6 10-6 14-3 11-1 7v14l5 18 6 11 8 8 14 8 27 9 16 4 25 2h36l8-3 7-5 5 1-1 6 5-1 5-10 6-8 4-1 2 1-1 5-4 6-1 4 5-3h5l1 4-7 6-6 3h-2l-2 10v11l4 10 7 9 8 8 14 9 12 6 10 3 29 3 32 3h67l31-3 27-5 21-6 15-6 13-7 7-7 10-13 4-7 3-7 4-3 4 1-1 7-6 12v6l-11 11-15 10-18 10-24 10-34 9-24 4-23 2h-29l-25-2-28-4-22-6-15-6-20-4-16-3-26-10-11-7-8-8-5-11v-8l5-17-35 2h-26l-21-3-17-4-16-6-11-7-8-5-10-9-6-8-4-5-5-12-5-16-1-6v-23l4-15 8-16 9-14 12-13 8-7 11-9 13-8 14-7 20-8 6-1-5-4-24-12-20-12-11-8-10-10-7-10-6-13-1-9v-21l5-16 4-11 6-8 7-9 10-11 20-13 11-6 2-4-1-3v-8l4-13 9-12 12-12 8-6 8-11 5-5 8-7 14-8 15-7 19-7 18-5 3-1 18-2 13-2h29l15 2 24 6 17 8 16 12 6 5 4 4v3h2l9 15 7 10 5 9 1 5h2l4-6 9-10 9-11 11-12 7-8 9-10 19-19 20-12 12-5 10-3z" fill="#10183C"/>
<path transform="translate(1542,108)" d="m0 0h11l15 3 15 6 25 13 16 12 11 9 8 8 7 8 15 22 9 12 7 14 4 14 2 16-1 17-4 18-10 18-5 6-1 3 10 2 24 8 25 11 19 10 20 14 10 10 14 8 14 6 21 12 11 8 9 7 13 13 10 14 5 10 3 11v15l-3 11-6 12-8 10-10 9-14 9-17 8-32 10-37 4h-31l5 15 1 12-2 13-5 13-7 11-11 12-8 7-17 11-21 10-14 6-7 4-36 12-22 5-20 3-27 2h-27l-29-2-27-4 1-4h8l17 2 16 1h49l19-2-35-1-27-4-26-8-18-8-11-6-5-4-1-4 7 1 13 8 23 9 18 5 24 4 13 1h20l28-3 23-4 15-4 18-5 16-8 14-10 11-11 9-13 2-7 3-9v-18l-4-17-7-12-4-5-30-8-23-8-17-8-13-8-2-3 1-7 7-6 8-2h17l-10-6-16-6-2-2 1-5 9 1 15 6 12 8 10 6 21 7 21 11 16 12 7 7 8 10 23 1 29-2 23-4 21-6 17-7 11-6 10-8 10-10 7-12 3-10v-18l-4-12-7-12-12-14-11-9-13-10-17-9-9-4 8 13 4 6 6 19v18l-4 15-6 12-9 11-8 8-14 10-14 8-9 3h-6l4-4 21-11 13-10 7-6 9-12 5-11 3-12v-16l-6-18-9-15-11-13-6-5-24-8-30-9-28-6-21-3-32-3-7-1h-14l-25 7-9 2-19 1h-20l-6-3-1-3 6-5 11-4 25-3h37l16-8 11-8 5-4 1-3-10-1-24-3-16-1h-22l-23 2-5 1-2-1 1-4 7-3 14-2h43l27 3 11 2h6l7-11 5-15 3-14 1-22-2-16-6-21-8-16-4-5-11-9-14-10-18-10-21-9-13-4-10-2-9-3-18-3-12-1h-13l-7 4-9 12-9 15-3 9v14l-1 2-5-1-3-4v-14l8-16 7-12 5-6-8 1-18 6-22 9v-3l11-8 23-9 17-4 7-1 11-8 13-6z" fill="#10183C"/>
<path transform="translate(607,799)" d="m0 0 4 2-4 3 8-1 5-2h5v2h5l2 3 17 2-2 2-3 2 8 2v2l6 2 14 3 6 2 11 6 8 9 7 4 12 5 7 4 1 2v7l-3 7-3 1-2-7-5 1h-3l3-4-2-3-4 8-2 1 1-7-4 2-7 21-4 6h-2l-3 10-7 8-6 7-2 1-2 4-1-9-1 2h-2l1 8h-2l-2-9-1 1 1 9-36 15-37 16-21 9-10 3 6-7 4-3 2-4 16-8 38-16-25 10-30 13-14 6-2-1 8-7 6-6 91-39h3l1 4 1-4 2-5-3-9-4-2h-15l-15 4-3 2 11-4 10-2h10l6 3 1 2v6l-3 3-27 12-42 18-16 7-4-1-1-2 37-17 37-16 16-6-10 3-28 12-42 19-13 5-10 5-3-1 4-1 1-5 19-9 23-10-5 2-30 13h-3l1-4-12 5v-2l6-3 1-1h-3l2-5 4-7-9 1 7-11 33-16h3-4l-39 19h-2l2-4 3-4h2l1-5 19-10-15 7-12 6h-2l2-4 5-5 2-1-3-1-9 8-2 5-11 14-8 7-4 4h-2l2-6 13-16 8-10 3-6-8 8-6 7-11 9v-3l7-9 12-15 12-16 6-7 11-9 16-15 16-14 1-2-9 1-9 5-1 4-7 3-11 9-3 4h-3l1-4 9-7 1-3 10-5 5-4-1-5h8v-3l13-8z" fill="none"/>
<path transform="translate(655,651)" d="m0 0h14l5 3 4 3 6 15 2 13 1 4-4 1-2 8-9 4h-3l3 4 7 2 4-2 2 1-3-6v-2l4 2 6 7 1 7 2 11v-5l2-5-1-12 4 3v15l-3 12-5 9-9 8v2l4-2-1 5-6 24-7 13-5 15-4-1v-6l10-19 3-5 3-10-3 1-3 10-6 4-6 7-7 1h-7l-6 4h-5l-1-2 1-4-5 1v-3h3l1-14 5-25 2-17-2 1-4 8-1 9-3 14-1 12 2-7 1 4-3 14-4 1v-14l4-19v-2h-2l1-9-2 1-3 16-2 11v6l2-7 2 1-2 14-4 3-3-1-3 4 19 4 13 5 8 5 6 8 3 2v2l3 1-1 2-10-7-8-7-10-4-13-4-6-1h-18l-5 2-10 1-9 7-10 9v1h6l-3 3-40 13-16 7-3 3-1-3 5-6 8-4 17-5 17-6 8-7 15-15 10-3-2-9-12-21-4-10-1-1-1 4-5-18-3-13v-6l4-5 3-3 1-9 4-11 8-13 11-8 22-8 11-5 5-1h24l12 3 8 5-2-5-4-4-3-1h-15z" fill="#10183C"/>
<path transform="translate(860,1578)" d="m0 0h13l35 3 7 1 1 2h-10l-27-2h-12l15 2h14v3l30 1v2l7-1h9l13 4 7 3 41 3 13 1-18-2-35-3-5-1 2-2 44 4 83 8v2l-46-4-17-1 39 4 16 1v2l25 2 6 1v1l-20-1-56-5 8 2 20 2v1h-16l9 2 94 8 3 2-39-3-49-4h-6l16 2 44 4 4 1v2h27v1l25 3 18 2 1 2h-22l1-2-77-7-19-1 15 2-4 2 5 2 25 2v1h-17l12 2 67 7 43 5 1 2-20-2-72-8-17-1 24 8 46 5v-4l4 1 2 4 16 1 25 3v2l-15-1-24-3 1 4 14 2 25 3v-3h4l3 3 9 2-4 2 2 3 1 8 1 1v6l2 5v3h-5l-1-1-3-18-4-7-4-2-38-4-2-1 2 4v3l10 3 25 9 11 5 1 3h-5l-14-7-18-7-9-3 2 4v3l6 2 4 3h-7l-6-5-5-9-19-7-24-6-7-1v-1l5-1-12-4-19-2h-13l-20-3-21-2-6-1 1-2 19 2 2 1v-2l25 4 25 2-27-9-39-3h-15l-14-2-1-2-10-3v-1l7-1-2-2h23l17 2h5l-17-2-30-2v-2l-18-2h-5l2 3-15 3 4 1 17 1v2h-12l-10-1h-13l3 2 24 6h10l1 3 2 1v2l-35 1-19 2v1l-17 2-9 2 10 1h19l17-1 3-1h57v2l-21 3-11 2-1 1 47 5h11l15 2-1 2h-10l-56-6-8-1h-12l-30 7-2 1 1 1 19 1v1l-7 1h-11l-6-3 4-4 25-6 3-1-32-3-17 1-6 1v1l-11-1-7-3 2-2 22-5 5-1h-23l-7-2v-3-1l-39-7-2-1v3l-20-4-10-3v-2l-28-7-21-1 1-2 3-1h-14l-8 2h-16l1-2 15-6h5v-2l21-9 6-3 18 1 7 2-1-4 2-1-4-1-1-2-3-2 5-1 27-1z" fill="#10183C"/>
<path transform="translate(439,1472)" d="m0 0 10 2 18 4 6 1-3 14 1-2 28 4 49 8 48 6 3 2-13 5-6 4-9 2-4-1 14-5 1-2-4 1-14 1-8 2-1 3-9-1h-7l-8-3 1 6-7-1-12-5v-1l6-1-6-2v-1l11-1 8 1v-2l-27 1-21-3 8 4v1h-9l1 2 20 1 21 7 4 3 9 2 27 11 14 9 7 6 1 3-3 1 5 1v1h-10l12 2 2 1v2l-9-1-21-4v2l12 1 21 4 5 3-3 1-51-8h-5v3l-14-1v-2l-7 1v-2l13-7 2-3-10 2 4 1-10 6-13 4-10 2-3 1v-2l-8 2-3 7h-2l-2-6-9-1-2 7-2 2-9 3v2l6-1-2 4-10 7-8 4-8 1 3-12 1-7-5 3-8 11-10 10-22-1-87-8v-2l28-2 54-1 10-1-4-2-16-3-2-1 1-3 9-2 15-2 20-2 7-3 1-1-10-2-11-1 3-3 11-5h20l2-2-11-3v-1h16v-2l-6-4-1-6 10-3 5 1h8l4-4 6-1 4 3-4-11-2-2v-11l-9 1-14 5h-2v-2l19-8 7-1 1-2h-19l-7-1v-3h-7l-8-5 3-21z" fill="none"/>
<path transform="translate(713,870)" d="m0 0 2 2 5-1v7l-1 10-2 17-2 9-2 26-2 39-2 12-3 8-8 4 1 2h7l1 4 2-2 1-7 3-1 4 9 5 17 7 18 3 11 4 12 2 10 7 21 1 5-10 4-14 5-13 6h-2l-2-9 5-5 3-6-1-5-1-4 2-4-3 7 3 4-3 7-4 5-3-1-2-5-2-8-3-8-1-10 4-8 8-10-10 10-4 3 3-10 6-8 3-6-6 7-5 2 4-8 5-7-4 5-5 6-3 5h-2l2-6 6-12-7 8-1-3 9-17-4 5-6 10-4 4-1-3h3l2-6 7-12 4-6h-2l-8 12-2-1 2-5 7-11v-3l-4 4-3 5h-2l1-8-3-2v-8h-1l1 4v8l-1 4 3 5-2 6 1 7-5 5-7-17-1-8v-10l-2-13-3-15v-27l2-2-1-10 2-2 2 6 2-1 6-11 12-16 10-17-3-1 4-10 7-15z" fill="none"/>
<path transform="translate(709,854)" d="m0 0 2 1 1 4-2 3 2-2 5 1 2 10-1 2-4-1-3-1-2 6-7 15-1 4 2 1-2 5-8 13-8 11-8 12-2 4h-2l-2-5-1 1 1 11-2 1v27l3 15 2 13v12l3 12 5 10 3-4-1-7 2-6-3-5 1-7v-8l-4-2 2-1 4 2-1 8 4 2-2 8h2l2-5 5-5 1 4-7 11-2 5 4-5 6-8 2 2-4 6-9 16-1 2h-3l2 2 6-10 7-11 1 3-9 17 1 1 8-11 1 3-6 9-3 7-2 4 3-3 4-6 7-10 1 3-6 8-3 6 6-4 5-5-2 5-6 9-4 10 4-4h2l2-4 4-5 2 1-8 10-4 8 2 13 3 7 2 9 1 2 4-2 3-5 1-5-3-4 3-6 3-2-2 4-1 5 2 2-1 7-6 8h-2l2 9 22-10 16-5-4-15-5-14-2-9-3-10-5-16-7-19-5-16-1-4-2 1-1 7-4 3v-5l-7 1-2-3 5-3 4-2 3-11 2-22 2-39 1-12 2-9 2-17 1-10 1-8h2l1 3v15l-3 21-2 13-3 48v17l3 14 4 7 2 8 3 2v2h-2l3 11 11 34 10 32 1 7-3 1 5 15-3 3h-11l-18 6-3 3-8 14-3 6-13 6h-2l2 11 1 7v24l-2 17v31l2 23 3 14 2 23v16l-1 21-3 6-1-4 1-5v-30l-2-15-2-20-5-18-1-13-2-6-2-13-1 7h-1l-2-45-3-20-4-19v-2h2l9 39v31l4 7 1 9v10h2v-73l-4-25v-5l12-5h-7l-10 3-5 3-8-1-2-3-3 5-6 4 1-4h-2l-1-7v-19l2-7 3-26 2-10h1v15l4-1 5-8 6-8v3l-8 16-5 8-1 4h4l-2 5-5 7h6l-1 7 4 1-2 5 2 8 16-5 17-5 8-1-1-5-5-1-3-9-3-8-7-24-5-19-6-15-8-15-1-3-1-22-5-26-1-12v-16l2-8-1-8-1-4-16 5-39 16-12 5-3-1 9-4 41-17 13-6 5-1v-7l-17 6-35 15-23 10-3-1 22-10 38-16 15-6h2l-2-10h2l2 9h2l-1-8h2l2-4 1 7 14-14 5-12 3-3 4-8 5-16 5-3 1 2v4z" fill="#10183C"/>
<path transform="translate(343,1318)" d="m0 0h46l15 2 8 5 2 3v9h9l25 4 3 5 1 4v20l-3 20-4 16-2-1 2-12 2-15v-28l-2-4-20-4h-13l-1 2-1-3-67-1-11-1-6 1-3 5-1-2 1-4h-21v7l-11 8-2 4h4l-2 4-3 3h2v-2l2 1-1 5-1 4v3l3-1-2 5 2 1-2 4-1 3h5l3-3-2 6-4 6 1 11-1 2 4-2-1 9-2 4v7h2l2-5 2-1-2 6-3 7v5l3-1 2-5 5-5-2 5-7 11-2 8 5-2-2 5-4 7 5-5 5-7 1 2-8 14-1 1-1 9h2l7-10 5-8h2l-1 5-8 10-6 10-2 10 4-1-2 5-1 2 4 2-4 2-3 10-3 1 1-9h-2l-1 7h-2l-1-3-7-2 1-5h2l1-4 2-4-5-1 1-5 2-4h-4l2-5-5 2 1 27-1 7 3 1v1h-6l-1-1v-30l-1-25v-45l1-4-1-19-1-16v-17h2v5l6-4h2v-3l-4-1-2-2h-2v-2l17-9-11 3-8 1 4-4 15-6 14-4 8-1h18l9 1 2 1-1-4 5-10h4z" fill="#10183C"/>
<path transform="translate(959,1592)" d="m0 0 45 4 83 8v2l-46-4-17-1 39 4 16 1v2l25 2 6 1v1l-20-1-56-5 8 2 20 2v1h-16l9 2 94 8 3 2-39-3-49-4h-6l16 2 44 4 4 1v2h27v1l25 3 18 2 1 2h-22l1-2-77-7-19-1 15 2-4 2 5 2 25 2v1h-17l12 2 67 7 43 5 1 2-20-2-72-8-17-1 24 8 46 5v-4l4 1 2 4 16 1 25 3v2l-15-1-24-3 1 4 14 2 25 3v-3h4l3 3 9 2-4 2 2 3 1 8 1 1v6l2 5v3h-5l-1-1-3-18-4-7-4-2-38-4-2-1 2 4v3l10 3 25 9 11 5 1 3h-5l-14-7-18-7-9-3 2 4v3l6 2 4 3h-7l-6-5-5-9-19-7-24-6-7-1v-1l5-1-12-4-19-2h-13l-20-3-21-2-6-1 1-2 19 2 2 1v-2l25 4 25 2-27-9-39-3h-15l-14-2-1-2-10-3v-1l7-1-2-2h23l17 2h5l-17-2-30-2v-2l-18-2h-5l2 3-15 3 4 1 17 1v2h-12l-10-1h-13l3 2 24 6h10l1 3 2 1v2l-35 1-19 2v1l-17 2-9 2 10 1h19l17-1 3-1h57v2l-21 3-11 2-1 1 47 5h11l15 2-1 2h-10l-56-6-8-1h-12l-30 7-2 1 1 1 19 1v1l-7 1h-11l-6-3 4-4 25-6 3-1-32-3-17 1-6 1v1l-11-1-7-3 2-2 22-5 5-1h-23l-7-2v-3-1l-17-3v-1l12 1 6 1h8l7-2v-1l15-2 13-3v-3l5 1 6-1-14-2v-2l17 2h8l11-3-3-1h-14l2-2 11-1-9-4v-2l7 1 6 3 24 1v1l20 2 16 1-8-2-51-4-3-2h12l32 3h6l-12-2-36-3v-2l29 2h6l-16-2-11-1-5-2 4-2 18 1-18-2-35-3-5-1z" fill="#10183C"/>
<path transform="translate(409,1562)" d="m0 0 1 2 17 2 4 2-5 4-11 2-19 2-13 2-5 1-1 2 22 4v3l-10 1-54 1-16 1h-12v2h10l77 7 3 2h-9l-76-7-1 3-2 1-50 4-13 2 6 12 1 3 8-3h5v2l-10 4v9l-3 4h-4v-2l2-1v-8l-6 3v2l-7 4-8 1v-3l13-7h-19l-23 1-5 5 4-1-5 5-5 4-7 10-8 13 36-6 58-11 23-5h6l1 2-17 4 13 5 10 6 1 2-5-2-14-7-10-2 4 11 7 11 8 7-1 2-8-7-7-8-16-7-5-1 7 8 1 3 5 2 4 5-2 1-8-6-7-6-6-7v-2h9l10 3 4 1-4-7v-3l-39 9-24 4-16 4-15 1-19 9-16 5-21 6-2 1-11 1-2 4-6 7-4 2h-4v-2l5-3 5-7-15 6-10 9-11 7-9 2 1-2 8-4 15-12-7 1 3-3 4-2 2-4 4-3h2l1-5 5-4 7-3 11-9 11-7 2 1-13 11-4 4-6 9-8 7 10-3 14-14 5-6 5-5 6-5 2 2-8 8-7 8-8 10 9-3 9-9h2l2-4h2l2-4 5-6 5-5 8-9 4-6 4-1-1 5-11 12-7 8-7 7-6 7-3 3 32-10 6-7 1-2h2l1-4 10-15 8-11-6 4-9 10-10 15-6 8-7 1v-3l7-6 7-10 3-5h2l2-4h2l1-4 7-7h-10l-8 1-1-2 21-3 10-2 11-13 6-7 3-3h2l-2 6-2 3 19-4h4l-2-5 5 1 2 2 38-4 20-1v-2l-39-1-21-1-4-2v-2l8-2 41-5-23-1 1-2 23-1h39l7 2-2 3-9 1-31 1-44 5-4 1h52l3-1 49-3v-1h42l1-1-10-1-5-3 2-4 6-3 15-1 24-4-3-1-18-1-1-3z" fill="#10183C"/>
<path transform="translate(571,1178)" d="m0 0 2 2 2 17 2 4 2 8 3 4 2 5 8 15 9 11 6 8v2h2l3 5 1-4v-8l-2 2-4-1v-10l3-18v-5l-4 2 2-6 2-2v-3l-2-1 1-2 4 2 2-4 2-8 2 1 3-3-2 7 1 11 6-5-1 5h7l1 4-4 15v10l-4-3-2-9-3 3-2 4-2 19 2-9h4l1-2-2 13v11l6 17 6 9 2 4-1 3 1 3 5 8 1 4-3 1 1 10 1 7 2 5 7 8-1 3-2 1 2 4v6h-4l-1 8 1 4-1 14 5-13 6-19 1-9 3 1-3 14-1 7-2 9-8 21-3 12-2 1-2 12-2 37-4 36h-2l2-37 3-48 3-40 1-13-2-15-7-15-14-35-7-16v-3h3l10 18 3 6-2-6-12-24-9-12-9-11-5-6h-2l-10 19-5 13-6 13-12 27-7 19-8 20-5 6v-3l4-8 4-13 7-20 8-19 2-2 4-10 5-11 6-16 10-21-2-5-2-4-2-1v2l-16 5-8 3 20-6 4 1-8 4-12 4-10 4-8 3 2 2-10 4h-5l1-4 9-3-1-4 6-4 27-10h3v-2l-2-1-1-2-5 1-14 6 2 2-7 3h-7l1-3 12-6 13-6-12 3-5 2h-4l1-3 16-7h3l-1-2-11 3-5 2h-5l5-5 13-7-3-6-3-1 3-1v-2l3-1 1-7 2-1 1 6 2 1v4h3l-1-7 2-3 1 7h2z" fill="#10183C"/>
<path transform="translate(632,837)" d="m0 0 2 1 9 1 2 6-3 5-2 1-1 3-6 4-1 2 2 1-9 6-9 10v2l11-8 5-2-1 4-6 5-5 5-11 8 8-1 9-2 8-3 10-2h10l6 3 1 2v6l-3 3-27 12-42 18-16 7-4-1-1-2 37-17 37-16 16-6-10 3-28 12-42 19-13 5-10 5-3-1 4-1 1-5 19-9 23-10-5 2-30 13h-3l1-4-12 5v-2l6-3 1-1h-3l2-5 4-7-9 1 7-11 33-16h3l1-4v-3l5-6 4-4-6 4-10 3 3-3 4-1 2-4 7-6-2-2 17-9 3-4-12 4-10 8-8 6v3l-4 2 1 2-2 1h-7l5-5 8-7 9-7-7 1 2-2 15-6 4-2 9-1z" fill="#10183C"/>
<path transform="translate(695,1510)" d="m0 0h8l24 5 20 4 3 1 1 3 26 4-24-5-1-2 9 1 35 7 28 4 27 3 34 6 14 2h14l24-3 5-2h3v-2h7l1-3 7 1 5 1h7l32 10 29 7 71 15 71 14 10 2 2 2 28 6 4 1-1 3h-2l1 2 11 3 39 7 61 9 48 6 27 3-1 2-54-6-50-7-56-9-20-3-13-4v-3-2l-31-7-18-3-10-1-2-2 4-1-75-15-69-15-24-6-10-2-9 3-9 2h-5l1 4h-13l-16-1-13-2-17-1v-2l-14-1-32-5-37-5 36 7 22 4 33 4 15 4 14 7 12 7 12 4 27 3h4l-35-9-7-3-2-2h8l38 10 16 5 13 3 20 1v2h-12l25 7 11 3-1 2-5-1-27-8-19-5-46-5h-4l16 7 29 3v1l-23-1 11 3 10 1v1l-6 1 7 3 22 2 2 2-25-1-11-2-55-5-1-2h18l19 3 19 1-10-3-13-2v2l-12-1-13-3-29-3v-2l36 3-14-4-26-3-17-1-37-8-37-10-48-14-17-4-1-2 8 1 40 11 49 14 27 6 37 5 9 1-19-5-14-3-32-4-6-2 3-1 11 1 1-1-41-9-50-12v-2l18 4 60 14 49 9v1l-14-1 31 4 21 2-23-13-15-4-33-4-18-2-9-3-36-7-77-13-14-1-1-3-11-2-6-3z" fill="#10183C"/>
<path transform="translate(700,1351)" d="m0 0h2l-1 10-2 10-3 31-2 18-2 25-2 28-1 10v14 3l-3 3-2-1-16 1h-20l-3 18-1 2 6-3v-3l3-1h11l12 3 1-9 2-3h2l1 5v10l5 2 3 5 4 10 3 4 1 6-9 3-14 3-13 1h-12l-11 1h-9v-1l19-3v-2l-15 2-18 4h-5v2l8-2 4 1-1 1-7 1h-10v-3l15-4 5-1-13 2h-10l-4-2h-5l3-3 32-7-3-2 10-2 2-1 4-25h-18l-24 5-4 1v3h5l-4 2-8 2h-10l-10-2 3-2 11-3 7-4 8-3-1-1-48-6-49-8-21-3-3-1v-2l13 1 39 7 49 7 24 2h11l24-8v-3l9 1 7 2 12 1 9-2 12-1 1-4 3-53 3-34 1-4 1-15 1-4 1-13 3-9z" fill="#10183C"/>
<path transform="translate(512,920)" d="m0 0h2l3 15 3 17v6l-4 9-7 16-3 6-4 6-7 17-4 17-4 30-1 12-3 7-3 21-4 1-15-2h-13l1-8 1-3h2v-3l4-1-3 5h7l-4-1 1-3 6-3 1-1 4-3 2 1 6-7 1-2-4 1v-7l-2 9-7 4-2-1 3-3h3v-2l-6 4h-2l-1-6-6 5h-2v-7l5-2-1-3 1-1-5 1 1-8 8-2 5-3-6 2v-2l-6 2 1-4 4-4-3-1 22-14h3l4-6-5 3h-2l2-4 2-3v2h2v-12l2-7 3-12 1-3 2-1-2-1 2-5 4-3-5 2-17 11-9 5h-2l1-4 4-8 5-8 8-3 2-4 10-6 8-4h3l-2 6-9 6-14 8-7 5h-2v3l9-3-6 1 4-4 17-10 4-1 6-5h2v-2l-2-1 1-2h2l1-4 2-5 2-13 1-2-3-1 3-10z" fill="none"/>
<path transform="translate(517,965)" d="m0 0 1 4-3 7-5 13-6 10-5 15-3 12-4 18-1 14-3 21-1 3v21l-2 2-13-2-6-1h-14l1 7-1 6h13l13 3 1-11 3-1 1 3-2 5 1 1v6l-1 1h-9l-6-2h-10l-5 1-1 7 2-5h2l-1 6-6 13-3 8v8l4 4 2-3 3-10 2-2 1 1-1 9-3 6h3l-1 4-6 1-5-5-3-1-1-2v-10l4-13 2-2 2-7v-8l-1-3 1-12-3-2v-13l2-5 1-14 1-3 1-21 3-13 3-12 3-18v-5l9-3 13-8 6-3 2-4-10 5-4 3h-2v3l-6 3-4-2 14-8 11-7 6-4 3 1-5 5-2 3 3 1-3 1-2 11-2 8-1 3-1 12-4 2-2 3 5-3h2l-2 4-2 6-2-4-10 7-10 6v1l3 1-7 5-1 3 6-3 2 1 8-2-3 3-8 4h-6v7l7-2-2 3h-2v2l2 1-2 2h-4v7l9-6v7l6-4h2v2l-5 3 7-3 2-9 2-1-1 8 4-1-2 4-3 3-2 5-2-3-3 3-1 2-2-1-5 3-1 2 4-1v2l-5 1-2-1 1-4h-2v3h-2l-2 11 13-1 18 2 3-21 3-7 3-28 3-18 4-16 7-16 4-5 7-16 3-6z" fill="#10183C"/>
<path transform="translate(607,1651)" d="m0 0 6 1 3 2 15-2v4l-20 6-17 4-14 4 25-6h8v3l-20 7-17 5-12 3-1 3-12 2-72 24 10-1-3 2-17 4-40 12-34 12-6 3h-5l3-3 27-10 46-16 26-8 69-23h2v-2l-6-1-25 7-36 12-32 11-19 7-24 8-15 6-8 3-4-1 14-7 29-11 50-17 43-14 8-3-34 10-59 18-45 14-9 2 1-3 9-3 1 1 38-12 43-13 39-12-2-2 8-1 1 1 3-1-1-2 16-4 1-1-4-2-14 2-15 3h-5l4-2 49-10 35-7 13-2h6v-2z" fill="#10183C"/>
<path transform="translate(338,1562)" d="m0 0h30l14 2h12l7 2 18 1 5 1-2 2-32 5h-7l-7 4v2l9 3 5 1-1 2h-41v1l-50 3-3 1h-52l-1-2 29-4 20-2 37-1 4-2-6-2h-39l-24 1h-13v-1l15-2 36-2 37-1 7-2h-30l-35 2h-9l1-2 12-4 8-1v2l16-4h13z" fill="none"/>
<path transform="translate(977,682)" d="m0 0h13l15 5 11 6 5 6v11l-3 5-10 6-11 3h-19l-14-4-10-7-5-6v-6l6-9 7-4 13-4z" fill="none"/>
<path transform="translate(223,1667)" d="m0 0 8 1 4 1 4-1 1 3 15 1h4v4l2 1-4 1 1 2-7 3v3l2 2 10-2v4l-2 3 4 3 6-1 9-5-3-3 12 1v2l7 1h10l65-5 6-1-6-2 3-2 10 1 4 4-8 2-16 2-2 2-47 1v2h-5v-2h-7l1 2 5 1 1 3 4 3 7-1-4 3-5 1-4-2h-6l-16 9-7 4-2 4-1-2-14 7-22 13-12 8 6-1-3 3-6 1-1-2 4-5 11-6 15-9 20-11v-5l6-1h3l3-2-1-2 10-5v-2l-5-2v-2h-7l-7 6v4l-5-1v2l-6 3-17 12-21 14-16 12 3 2-3 2h-4l1-5 17-13 33-22 8-6 1-3-8 2 2-3h2l-2-3-7 1-10 9-14 11-17 13-8 6v3l-6 5h-4l1-4 5-4 9-7 13-10 14-11 10-9 6-5 1-2-8 2 2-3h2l-3-3-6 2-13 12-11 9-13 11-3 3 7-5 2 1-13 10-5 4-4-1 3-5 14-11 14-12 11-9 12-11v-1l-5-1-1-3-5-1-21 21-1 3 2 1-13 11-5 4-5 1 2-5 8-7 5-5 5-4 5-6 4-8 2-3-5 1-7 3 2-4 11-6 3-4-1-7z" fill="#10183C"/>
<path transform="translate(1146,132)" d="m0 0h22l20 3 16 5 14 6 14 9 7 6-3 1-27-9-19-4-20-2h-42l-20 3-15 2-4 2-11 2-21 7-19 8-3-1 10-9 13-7 7-4 19-7 23-6 27-4z" fill="none"/>
<path transform="translate(304,1346)" d="m0 0h3v8h2l-2 10h3l-1 9 3-10 2-3-2-1 4-6 1 4-2 6 5-3-2 5-3 4-1 8 5-3-2 5-4 8 4-2 1 4 4-3-2 4-2 3-1 7v8l4-4-2 6-3 12 2 1-2 7-1 3 3-1-1 4-1 2v10l-1 4h2l2-6 3-7 1-12h-2l2-9-2-1 3-1 2 1v-2h2l-3 9-1 11h2l1-3 1 2-3 6-1 12 1 2-3 12h2l2-5 2-1-6 15v5l1 2h2l2-5 4-4-2 5-8 14 6-5 2 1-8 10v3l2 1-4 5-5 5-2 1-2-1 1-6 2-4-6 5h-2l1 6-1 2 11-2 6-6-2 6h3l-1 3-6 1-1-1-28 6-10 5-4 1-14 5-29 13-17 8-3-1 31-15 36-16 21-6h4v-7l-2-2v-5l2-3 3-11v-17h2v15h2l-1 6v3l-2 2v3l3-1 2-10 3-8-1-7 1-3-4-1 1-7 2-8v-4l-2 5-4-3v-11l-5 3 2-4 2-2v-26l-1-3 2-6 2-1 1-5-1-2-3 1-1-28z" fill="#10183C"/>
<path transform="translate(543,1632)" d="m0 0 8 1 35 9-3 2h-6v1l6 1-2 2-42 12-16 5-6-1-4-4-5-3-7-7-7-6-3-1-16 6-8 2-6-7 2-2-4-1-3-4v-2h45l3 3-3 2 9-3 6-1h9l19 2 3-1-4-1-2-2h2z" fill="none"/>
<path transform="translate(649,1309)" d="m0 0 4 4 4 7 1-2h2l3 11 2 5 10 1-1 5-3 5h8l3 2-9 1 1 3-4-1-1 9-4 17-4 9-3 21v3l6-9h2v6l-4 10-6 13 5-5 4-5h3v6l-10 21-3 5v3l3-3 4-8 5-8h2l2-4h2l-1 5-13 21 5-5 4-2-1 6-7 13-8 12 5-4 8-8 3-1 1 3-7 13 5-4h4l1 3-8 4-5 4h-3l1-7 1-3-4 2-2 4-5 5h-3l1-6 7-12 2-4-8 11-4 4-2-2 2-9 3-9 4-7 1-11-2 4h-3l2-9 5-13-1-6 4-13v-8l1-3h-2l-1 6-7 18-2 1 1-5 6-16 2-13 3-8 3-15v-29l-7-3 1-2 6 1-1-8-9-15z" fill="#10183C"/>
<path transform="translate(1658,313)" d="m0 0 8 1 25 7 20 8 27 14 13 9 5 5-7-1-18-5-15-4-36-7-39-5-10-1 2-4 11-6z" fill="none"/>
<path transform="translate(843,708)" d="m0 0h11v4h6l5-2 16 1 12 2 14 6 8 7 1 7-5 4-7 2-8 1h-12l-18-3-18-6-8-4-5-5-1-6 4-6z" fill="none"/>
<path transform="translate(644,883)" d="m0 0h10l6 3 1 2v6l-3 3-27 12-42 18-16 7-4-1-1-2 37-17 37-16 16-6-10 3-28 12-42 19-13 5-10 5-3-1 4-1 1-5 19-9 23-10-5 2-30 13h-3l1-4-12 5v-2l44-21 36-17z" fill="none"/>
<path transform="translate(847,700)" d="m0 0h22l28 5 17 8 7 7 3 6v9l-4 5-11 5-10 2h-20l-18-3-19-7-10-6-6-7 1-9 4-6 7-6zm-4 8-6 3-3 5 1 6 5 5 10 5 20 6 14 2h12l12-2 6-3 2-2-1-7-8-7-14-6-21-3h-7l-5 2h-6v-4z" fill="#10183C"/>
<path transform="translate(167,1624)" d="m0 0m-1 1m-1 1 3 2 7-1h11l-6 7-3 5-4 4h-2l-2 5-9 12-6 5v1l7-1 9-13 8-11 10-11 5-2-14 21-5 7-1 3h-2l-2 5-5 5-32 10v-3l7-6 7-8 7-7 7-8 6-8 1-3-5 3-4 6-10 12-5 5-4 5-8 7-7 7-9 2 2-4 9-10 11-12h-3l-7 8-5 4-14 16-10 4-3-1 8-7 6-9 5-5 13-11 14-10 14-11z" fill="none"/>
<path transform="translate(409,1562)" d="m0 0 1 2 17 2 4 2-5 4-11 2-19 2-13 2-5 1-1 2 22 4v3l-10 1-54 1-16 1h-12v2h10l77 7 3 2h-9l-76-7-1 3-2 1-50 4-13 2 6 12 1 3 8-3h5v2l-10 4v9l-3 4h-4v-2l2-1v-8l-6 3v2l-7 4-8 1v-3l13-7-19-1 2-2h18l-1-3h4l-6-11-7-2 1-2h3l-2-5 5 1 2 2 38-4 20-1v-2l-39-1-21-1-4-2v-2l8-2 41-5-23-1 1-2 23-1h39l7 2-2 3-9 1-31 1-44 5-4 1h52l3-1 49-3v-1h42l1-1-10-1-5-3 2-4 6-3 15-1 24-4-3-1-18-1-1-3z" fill="#10183C"/>
<path transform="translate(963,1625)" d="m0 0h7l13 4 11 2 7 1h9l1 3 2 1v2l-35 1-19 2v1l-17 2-9 2 10 1h19l17-1 3-1h57v2l-21 3-11 2-1 1 47 5h11l15 2-1 2h-10l-56-6-8-1h-12l-30 7-2 1 1 1 19 1v1l-7 1h-11l-6-3 4-4 25-6 3-1-32-3-17 1-6 1v1l-11-1-7-3 2-2 22-5 5-1h-23l-4-4 2-1h7v-2l14-3 12 1-7-1 1-2z" fill="#10183C"/>
<path transform="translate(972,674)" d="m0 0h13l16 3 13 5 9 6 6 9 1 4v8l-6 10-8 6-12 5-10 2h-18l-13-4-12-7-8-7-2-3v-10l5-9 5-4 11-7 7-6zm5 8-5 3-13 4-6 5-4 7v6l7 8 8 5 14 4h19l13-4 9-6 2-4v-11l-5-6-16-8-10-3z" fill="#10183C"/>
<path transform="translate(526,1601)" d="m0 0 11 2 35 8 11 1 1 3-10-1-8 4h-2v2l9 1 13 1 1 2h-11l-13-3-8 1 8 3 24 6 6 2-4 1-32-8-3-1h-8l-8 3 18 5 33 8 9 2-2 2h-4v2l3 1-11 1-26 7-33 10h-2v2l-11 2-29 9 16-3h5l-4 2-41 9-56 16-13 5-3-1 5-3 24-8 20-6h-7l3-2 20-3 24-7v-1h-16l-18 3-29 8-8 3-4-1-1-3 30-8 31-9 22-7h2v2l-27 9 8-1h10l7 2 8-1 23-7-5-6-8-6-10-9-9 2-5 1 1-2 13-5 4 1 4 4v2l4 2 7 7 10 6 9-2 48-14 4-1-7-1v-3h9l-4-2-44-11-2-2 9-4h3v-2l-9-1-43-10v-2l11 2 39 9 7 1 5-1v-2l-9-1-22-6v-2l17 4 16 4 9-1-5-1 4-3-39-9z" fill="#10183C"/>
<path transform="translate(256,1552)" d="m0 0h2v3l-10 4-23 7-14 4-15 8-6 3-9 2-40 14-4 1h-7l2-5 6-9 3-12h-5l2-5h35l28-2 27-4 11-3z" fill="#10183C"/>
<path transform="translate(306,1338)" d="m0 0h17l1 3-4 9-7 9v4l-3 10-2 1 1-7 1-3h-3l1-8 1-2h-2v-8h-3l2 16v35l4-2 1 5-2 4h-2l-1 6-6 12-4 4-1 2h-2l-1-9 2-4 1-6-3 1-1-13 6-10-2 2h-5v-4l3-4-3-1 1-3-2 1 1-4-1-4 2-4-1-1h-2l1-3 4-4h-4l2-5 10-7 1-7z" fill="none"/>
<path transform="translate(487,1345)" d="m0 0 4 1 7 1-2 2-6 3v2h18l-2 2-13 5-4 1 3 3v2h-3l1 3 3 2v2l-11 5-3 1-1 2h16v2l-10 5-5 3v2l9 2-2 2-11 5-8 2 1 2h7l8-2 4 1-24 8h-2v2h6l1 2-13 4h-2v3l-3 1 2-10 6-16 5-13 4-11 6-9 7-14 2-7z" fill="none"/>
<path transform="translate(1685,535)" d="m0 0 21 3 5 9 3 13v10l-4 16-7 13-9 10-7 7-12 8v-3l10-13 5-10 4-13v-19l-2-13-3-5-3-8-2-4z" fill="none"/>
<path transform="translate(1606,486)" d="m0 0h18l8 5 9 7 19 19 6 7v2l-18-4-33-11-14-8-8-6 1-6 8-4z" fill="none"/>
<path transform="translate(870,1175)" d="m0 0h18l10 2 9 4 11 7 12 12 6 10 4 9 6-8 9-8 13-8 10-5 14-4 16-2h11l16 3 19 7 19 14 13 12 13 13 10 13 10 16 8 16 7 17 5 24 2 17v16l-1 15-3 17-6 25-6 15-4 9-7 12h-2l1-6 4-5 5-11 2-6 4-10 4-14 3-17 1-2 2-34-2-21-6-25-6-16-8-16-10-16-9-11-11-12-7-7-14-11-8-6-15-7-14-4-6-1h-17l-16 3-13 5-11 6-11 8-5 4-6 10-2 10-4 1-1-5v-9l-4-11-6-9-8-7-9-7-11-5-12-3h-15l-13 4-8 5-6 5-2-1 4-6 10-6 9-3z" fill="#10183C"/>
<path transform="translate(1078,610)" d="m0 0h13l1 1v20l4 10 8 10 9 8 12 8-4 1-22-6-17-8-10-9-4-8v-14l4-8 3-4z" fill="none"/>
<path transform="translate(896,1605)" d="m0 0h2l-1 8-5 8 5-2 3-5 8-2-1 3h-2v2l7-1 3-5 7-1v2l3 2-3 1 28 6 10 3-2 2-19 4h-9l-27-3-30-2h-9l-6-2 2-9 2-5 16-1-1 7-5 7 6-4 4-9 3-2 9-1z" fill="none"/>
<path transform="translate(782,740)" d="m0 0 12 2 6 3 3 4-1 6-6 5-9 4-14 3h-17l-10-3-4-4v-8l5-5 5-2 1 4 5-1 2-3 11-4z" fill="none"/>
<path transform="translate(534,1582)" d="m0 0 12 1 73 13 29 6 3 3 1 4-2 1-9-2 3 3 9 3 2 3v3l-7-1-42-12-30-7-1-2-18-3-26-6v-3l9 1 32 6 25 3 19 5-9-3-21-5h-11l-37-7-5-2z" fill="none"/>
<path transform="translate(1055,1637)" d="m0 0 19 2 2 1v-2l25 4 25 2v-2l12 3 46 5v-4l4 1 2 4 16 1 25 3v2l-15-1-24-3 1 4 14 2 25 3v-3h4l3 3 9 2-4 2 2 3 1 8 1 1v6l2 5v3h-5l-1-1-3-18-4-7-4-2-38-4-2-1 2 4v3l10 3 25 9 11 5 1 3h-5l-14-7-18-7-9-3 2 4v3l6 2 4 3h-7l-6-5-5-9-19-7-24-6-7-1v-1l5-1-12-4-19-2h-13l-20-3-21-2-6-1z" fill="#10183C"/>
<path transform="translate(607,799)" d="m0 0 4 2-4 3 8-1 5-2h5v2h5l2 3 17 2-2 2-3 2 8 2v2l6 2 14 3 6 2 11 6 8 9 7 4 12 5 7 4 1 2v7l-3 7-2 1v-14l-10-5-7-3-7-6-7-5-3-3-16-7-16-3-5-4-9-3-7-2h-19l-8 4-4 4-6 4-7 3-16 15-8 7-4 5-3 4-4-1 2-4 11-9 16-15 16-14 1-2-9 1-9 5-1 4-7 3-11 9-3 4h-3l1-4 9-7 1-3 10-5 5-4-1-5h8v-3l13-8z" fill="#10183C"/>
<path transform="translate(622,713)" d="m0 0h7l3 2-3 2-11 3-8 5-1 2 4-3 2 1 4-3 6-2-1 4-6 8 1 2 11-12 5-2-4 6-6 7-1 4 4-1 1-3h2l-3 9-6 24-2 12-1 2-2-1v-3h-1l1-15 5-19-2 4-5 20-3 7h-2l-1-3v-10l-3 20-2 4-2-1 2-9v-14l2-11-3 4 1-7 3-8-6 15v22l-3 15-2 1v-22l2-1 1-24 2-9 3-7 6-8 9-6z" fill="none"/>
<path transform="translate(773,733)" d="m0 0h16l11 4 8 7 1 2v8l-6 8-5 4-8 4-13 3h-23l-12-3-5-5-1-3v-9l4-8 6-5 10-4zm9 7-11 1-12 5-3 3h-3l-1-4-7 3-3 4v8l6 5 8 2h17l17-4 9-5 4-5-1-6-5-4-13-3z" fill="#10183C"/>
<path transform="translate(660,1721)" d="m0 0 3 1h-2l2 4 9 4 18 3 63 1 7 1v4h-22l-7-1h-45l-30 4-3 1 14 1 47 1 9 1 37 2 16 2 11 3v3l-13 3-34 3-30 4-30 6-3 1h60l31 3 18 3v2l-42-5h-70l-3-2v-2l24-6 32-5 46-6 4-1-20-3-32-2-62-2-13-1-4-2v-3l10-2 25-3 2-1-16-4-6-4-2-2z" fill="#10183C"/>
<path transform="translate(752,1535)" d="m0 0 8 1 40 11 49 14 27 6 37 5 9 1-19-5-14-3-32-4-6-2 3-1 11 1 1-1-41-9-50-12v-2l18 4 60 14 49 9v1l-14-1 36 5v1h-12l18 5 23 4 9 2-4 1 4 2 12 2 1-1v-2h11l17 2v1l-23-1 11 3 10 1v1l-6 1 7 3 22 2 2 2-25-1-11-2-55-5-1-2h18l19 3 19 1-10-3-13-2v2l-12-1-13-3-29-3v-2l36 3-14-4-26-3-17-1-37-8-37-10-48-14-17-4z" fill="#10183C"/>
<path transform="translate(665,1656)" d="m0 0 4 1-4 3-12 6-22 13 14-1 8-1h19l1 4-5 3-40 11-32 9-14 5-4 2v-2l-9 2-4-1 20-6 11-7 14-9 3-2-16 2h-6v-1l23-4 13-5 12-7 11-6z" fill="#10183C"/>
<path transform="translate(1537,116)" d="m0 0h16l16 3 15 6 16 9 12 8 14 11 3 4-6-2-25-12-22-8-24-6-20-3-15-1 1-2 15-6z" fill="none"/>
<path transform="translate(605,875)" d="m0 0 2 1-7 9v3h6l-1 4-5 5 3 1-28 14-18 8h-3l2-5 4-7-9 1 7-11 33-16z" fill="none"/>
<path transform="translate(165,1636)" d="m0 0h2l-1 5-11 12-7 8-7 7-6 7-3 3 11-2 6-1-2 2-16 5-9 4-2 1-11 1-2 4-6 7-4 2h-4v-2l5-3 5-7-15 6-10 9-11 7-9 2 1-2 8-4 15-12-7 1 3-3 4-2 2-4 4-3h2l1-5 5-4 7-3 11-9 11-7 2 1-13 11-4 4-6 9-8 7 10-3 14-14 5-6 5-5 6-5 2 2-8 8-7 8-8 10 9-3 9-9h2l2-4h2l2-4 5-6 5-5 8-9 4-6z" fill="#10183C"/>
<path transform="translate(528,1590)" d="m0 0 13 2 32 7 6 2 26 6 49 14 2 2-4 1 5 2 1 5-9-2-34-11-11-2-7-2v-2l-11-2-12-3v-3h-13l-28-6-8-2 2-5z" fill="none"/>
<path transform="translate(584,1648)" d="m0 0h11l14 4 2 1v2l-35 6-25 5-66 14-4-1 21-7 13-4h8v-2l21-7 28-8z" fill="none"/>
<path transform="translate(929,323)" d="m0 0 3 3 2 6 7 12v2l4 2 6 8 10 8 16 13 12 9 15 10 5 5-5-1-23-11-19-10-8-7-11-9-8-10-5-15-1-5z" fill="none"/>
<path transform="translate(478,1026)" d="m0 0h1l1 7h3v2l-3 2-1 7-5 18-2 4-2 7-6 3-2-1 3-3h3v-2l-6 4h-2l-1-6-6 5h-2v-7l5-2-1-3 1-1-5 1 1-8 8-2 5-3-6 2v-2l-6 2 1-4 4-4-3-1 22-14z" fill="#10183C"/>
<path transform="translate(917,1553)" d="m0 0 6 2 19 11 12 4 27 3h4l-35-9-7-3-2-2h8l38 10 16 5 13 3 20 1v2h-12l25 7 11 3-1 2-5-1-27-8-19-5-46-5h-4l16 7 3 5-12-1-11-4 4-1-28-5-22-6v-1h20l12 1-23-13z" fill="#10183C"/>
<path transform="translate(488,1645)" d="m0 0 4 1 12 11 8 6 3 4-8 3-19 6-7-1-5-1h-10l-11 1 2-2 37-12 1-2-22 2-4-5 1-3 10-3-3-1z" fill="none"/>
<path transform="translate(657,920)" d="m0 0h4l1 7-43 18-28 11-16 5-11 4h-2l2-4 8-5 39-17 38-16z" fill="none"/>
<path transform="translate(649,1309)" d="m0 0 4 4 4 7 1-2h2l3 11 2 5 10 1-1 5-3 5h8l3 2-9 1 1 3-4-1-1 9-4 17-4 9-4 25-2-1v-7l1-3h-2l-1 6-7 18-2 1 1-5 6-16 2-13 3-8 3-15v-29l-7-3 1-2 6 1-1-8-9-15z" fill="#10183C"/>
<path transform="translate(1013,1548)" d="m0 0 11 2 75 16 76 15 10 2 2 2 28 6 4 1-1 3h-2l1 2 11 3 39 7 61 9 48 6 27 3-1 2-54-6-50-7-56-9-20-3-13-4v-3-2l-31-7-18-3-10-1-2-2 4-1-75-15-64-14z" fill="#10183C"/>
<path transform="translate(576,1019)" d="m0 0h2v2l5-2h20l-1 2h-2v2l-39 19-6 7-4 4 2-5 1-2h-6l1-7 3-6 2-2h-1v-8l12-3z" fill="none"/>
<path transform="translate(735,1676)" d="m0 0h6v2l-6 3-8 6-4 6-1 3v7l1 5 6-1 9 5 9 8 1 4 10 4 1-1h10l12 3 8 5-1 3 12 3 21 3h29l4-1-1 3-5 1h-21l-24-3-29-6-16-6-23-11-12-8-5-10v-9l4-6 4-5v-2z" fill="#10183C"/>
<path transform="translate(695,1510)" d="m0 0h8l24 5 20 4 3 1 1 3 26 4-24-5-1-2 9 1 35 7 8 2v3l12 1 39 8 51 7 10 3 1 2-10-2-29-4-22-2-14-4-36-7-77-13-14-1-1-3-11-2-6-3z" fill="#10183C"/>
<path transform="translate(959,1592)" d="m0 0 45 4 83 8v2l-46-4-17-1 39 4 16 1v2l25 2 6 1v1l-20-1-56-5 8 2 20 2v1h-16l3 3-21-1-36-3-3-2h12l32 3h6l-12-2-36-3v-2l29 2h6l-16-2-11-1-5-2 4-2 18 1-18-2-35-3-5-1z" fill="#10183C"/>
<path transform="translate(1014,192)" d="m0 0 3 1v9l4 20v5l-19 5-5 1-2-4v-10l4-10 7-9z" fill="none"/>
<path transform="translate(636,1099)" d="m0 0 1 4-12 12v-3l4-5-18 7-30 14-23 11h2l3 1-3 2 2 1h6l6-4 35-15 10-5 3-2 1 1 16-4h2l-1 3-6 3v-2l-15 5-8 7-2 1 2-4h-3l-30 13-5 1v2l13-4 4 1-9 3h17l13-4 4-2 16-2v2l-22 6-2 1h9l7 1v1h-8l-1 4h-11v-1h8v-2h-18l-46-3 3-4 16-8 35-16 16-8 16-6z" fill="#10183C"/>
<path transform="translate(626,1107)" d="m0 0h3l-2 4-8 9-12 6-28 12-10 5-1 1-10-1 4-3-7 1 3-3 29-14 26-12z" fill="none"/>
<path transform="translate(979,1645)" d="m0 0h60v2l-21 3-11 2-1 1 47 5h11l15 2-1 2h-10l-56-6-8-1h-12l-30 7-2 1 1 1 19 1v1l-7 1h-11l-6-3 4-4 25-6 3-1-30-3v-2l4-1 17-1z" fill="#10183C"/>
<path transform="translate(748,1576)" d="m0 0h6l-3 3-26 10h-4v2l-9 3-45-10-5-2v-1h38v4l14 1 2-2 7-2-7 1-4 1h-8v-2l4-2 16-2h7l-2 2 12-3z" fill="none"/>
<path transform="translate(410,1635)" d="m0 0h41l6 10 2 4-25 3-23 3h-6l2-2 29-6-7-3-4-2-1 1-10-1-8-1-1-5z" fill="none"/>
<path transform="translate(978,1607)" d="m0 0 7 1 6 3 24 1v1l30 3v2l7 1v1h-12l-17-1v-2l-18-2h-5l2 3-15 3 4 1 17 1v2h-12l-10-1h-13l3 2 18 5-3 1-19-5-2-1h-7l-17 4 23 3v1h-10l-19-2-10 2h-4v2l-7 1-1 1 2 2h-5l-2-3 1-2-17-3v-1l12 1 6 1h8l7-2v-1l15-2 13-3v-3l5 1 6-1-14-2v-2l17 2h8l11-3-3-1h-14l2-2 11-1-9-4z" fill="#10183C"/>
<path transform="translate(641,730)" d="m0 0h2l-1 17-6 32-1 7h-3v3l5-1v5l2 2-7-1-17-3 4-6 1 2 5-3 2-14-1-1-1 7-2 1 1-15 3-12 1-7 3-1-1 9h2l1 3-4 18-1 14 3-1 2-11-2 1 2-18 3-13 1-8z" fill="none"/>
<path transform="translate(1413,125)" d="m0 0h6l-1 7-8 7-10 5-10 2-9-1-5-3 1-5 7-5 12-4z" fill="none"/>
<path transform="translate(948,1606)" d="m0 0h17l16 3 9 4v1l-14 1h14l3 2-13 4h-8l-40-6 3-2h5l2-5z" fill="none"/>
<path transform="translate(632,1118)" d="m0 0h2l-2 4-4 5-3 1-5 5-6 5-8 4-8 2h-18l1-2 2-1-10 2v-2l35-15 5-1-2 4 8-7z" fill="none"/>
<path transform="translate(496,1348)" d="m0 0m-3 1h3v2l-2 1 23-1-1 3-17 7 3 2-9 5v1l9 1-2 3-13 6 9 1 2 3-2 2-1 7h5v2l-7 4-2 2-7 1-6 3h6l-1 2-8 2h-7l-1-3 19-8-7-2v-4l10-6 5-1v-2h-16l1-3 9-4 5-1-4-4v-3h3v-2l-3-1v-2l11-5 6-2h-16v-4z" fill="#10183C"/>
<path transform="translate(682,1647)" d="m0 0 35 7 18 4v3l-11-1-33-6-17-2 34 7 5 1h7v2l12 3 2 2-16-2-25 14-17 10-27 15-17 11-8 6-5 4 2-4 8-7 19-12 25-14 22-13 16-10 4-1v-2l-11 3-3-1 6-2-6-2-44-9v-3l12 1 29 4 8 1-24-5z" fill="#10183C"/>
<path transform="translate(655,1679)" d="m0 0h11v2l-36 12-37 10-1-2 19-12 12-6 11-2z" fill="none"/>
<path transform="translate(401,1468)" d="m0 0 1 3-10 17-8 14 4-2v2l8-2h6v-6h2v5l19 1v1l-10 2-3 2 5 1v1h-21l-23 3-24 4-1-1-9-1 6-7 2 1v2l8-1 4-3v2l7-2 14-1 5-4 10-18z" fill="#10183C"/>
<path transform="translate(481,1127)" d="m0 0h1l1 19 3 6-1 5-7 8-4 2v-2l-9 4h-6l-2-4 5-13 1-6 4 1 2-4 1-1 1-10 3-1 1 4v8l-4 6 7-1-1 4-3 9 6-4 1-5-2-4v-20z" fill="#10183C"/>
<path transform="translate(808,1590)" d="m0 0 10 1 13 3 1 2-1 5-24 5-5 1h-7l-14-3v-2l21-9z" fill="none"/>
<path transform="translate(282,1394)" d="m0 0 2 1-10 9v2l5-2 5-1-4 5-4 3v2l5-2 6-2-1 3-5 2-2 4-2 3h5 3l-9 8-1 3h2l-2 4-1 4 9-2-3 5-4 4 1 2 4-1-3 5-3 4-1 3 6-1-2 4-4 5 3 2-2 5-1 2-3-1-1-51 1-11v-16l9-3z" fill="none"/>
<path transform="translate(652,1073)" d="m0 0 1 2-26 11-51 25-28 14-21 12 5-1 23-11 40-20 28-13 12-5 11-3v2l-20 7-51 25-32 16 6-1-4 3-7 3-6 1v1h-8l-2-4 25-14 33-17 23-11 31-15z" fill="#10183C"/>
<path transform="translate(758,1578)" d="m0 0 14 2 1 1 11 2v2l-16 6-11 4-7 1-9-2v-2l2-1-9 1-4-2 14-7z" fill="none"/>
<path transform="translate(1652,497)" d="m0 0 5 1 17 9 9 7 10 8 7 8-1 3-19-3-7-8-7-9-12-12z" fill="none"/>
<path transform="translate(1183,682)" d="m0 0 48 3h42l46-3v1l-37 7-32 1h-14l-26-2-22-4-5-2z" fill="none"/>
<path transform="translate(486,1610)" d="m0 0h7l52 12v2l-12 4-8-1-46-11-2-2z" fill="none"/>
<path transform="translate(633,720)" d="m0 0 2 1-10 12-1 4 4-1 1-3h2l-3 9-6 24-2 12-1 2-2-1v-3h-1l1-15 5-19-2 4-5 20-3 7h-2l-1-3 1-14 7-19 8-10z" fill="none"/>
<path transform="translate(605,875)" d="m0 0 2 1-7 9-1 4-36 18-12 2 7-11 33-16z" fill="none"/>
<path transform="translate(602,702)" d="m0 0 7 1 13 6v2l-6 2v2l-8 6-5 6-3 3-5 18-1-4 3-12 2-7 4-8-7 11-3 7-1-3-3 8h-1l1-9 4-10 6-10-4 1 2-4z" fill="none"/>
<path transform="translate(604,864)" d="m0 0 2 1-6 5-2 3h-2l-1 4v3l-34 16-10 5h-2l2-4 3-4h2l1-5 19-10 18-9 7-3z" fill="none"/>
<path transform="translate(456,1635)" d="m0 0h45l3 3-6 2v2l-9 2-20 7-4-2-4-5 2-2-4-1-3-4z" fill="none"/>
<path transform="translate(125,1656)" d="m0 0 2 1-13 11-4 4-6 9-8 7h5v2l-13 5-10 9-11 7-9 2 1-2 8-4 15-12-7 1 3-3 4-2 2-4 4-3h2l1-5 5-4 7-3 11-9z" fill="#10183C"/>
<path transform="translate(534,1299)" d="m0 0 4 1-3 3-5 3h8v3l-17 8-10 4 16-4h6l-5 5-23 10-7 4 12-1-3 2-9 3h-5l-2-3 10-6 16-8h-3l-11 4h-6l2-4 13-6 21-8-10 1-16 5h-8l3-3 27-9 1-3z" fill="#10183C"/>
<path transform="translate(304,1346)" d="m0 0h3v8h2l-2 10h3l-1 9 3-10 2-3-2-1 4-6 1 4-2 6 5-3-2 5-3 4-1 8 5-3-2 5-4 8 4-2 1 4 4-3-2 4-2 3-2 16h-1l-1-9h-3l-2-4-3 1-1-28z" fill="#10183C"/>
<path transform="translate(718,1135)" d="m0 0 4 1 1 6 3-1-1 6 2 1-3 6 1 17 1 13 1 4-2 8h2v4l5-12 1-7 2 3-1 13-5 8-2 6h-2v5l-2 1v-7h-3l1-15 1-7-2-12-1-14v-20z" fill="#10183C"/>
<path transform="translate(555,1683)" d="m0 0m-3 1 3 1-10 4-66 22 10-1-3 2-17 4-40 12-34 12-6 3h-5l3-3 27-10 46-16 26-8 36-12z" fill="#10183C"/>
<path transform="translate(399,1623)" d="m0 0h9l-4 5h5v-2h6l1 2 7-1 4-2 17 1 2 2 2 1v4h-9l-2-1-3 1h-27l2-4-4 1-1 4h-8v-6l-2-1 1 3-2 5h-7v-3l4-7 3-1h4z" fill="none"/>
<path transform="translate(699,1594)" d="m0 0 11 2 2 2h13l2-2 6-2h7l8 3-1 2-8 1v5h7l10-3 7-2 8 2v2l-7 1v2l-7 4-15-3-32-8-12-4z" fill="none"/>
<path transform="translate(422,919)" d="m0 0h7l5 2v1l-15 1-14 4-17 9-14 10-12 12-7 12-2 6-1 11h6l3 2v6l-2 2h-5l-3-3-2-7v-9l5-13 8-11 8-9 15-11 23-12z" fill="#10183C"/>
<path transform="translate(651,1582)" d="m0 0 9 1 36 9-1 2-6-1v2l9 2 39 11 20 5 1 2-8-1-47-12-34-10-11-4-5-4z" fill="none"/>
<path transform="translate(314,1399)" d="m0 0h1v10l6-5-2 6-3 12 2 1-2 7-3 9h-2v5l-3-1-2-16v-14l-1-3 2-6 4-4z" fill="#10183C"/>
<path transform="translate(780,1694)" d="m0 0h7l15 6 14 6 25 7 29 7 13 1 14 3 3 3-1 1-12-1-24-5-38-10h-5l-12-6-21-7-7-4z" fill="#10183C"/>
<path transform="translate(456,1652)" d="m0 0h6l-1 2-18 5-18 7h-11l-16-2-2-2 4-1 5-1 6-2 34-5z" fill="none"/>
<path transform="translate(750,1047)" d="m0 0h23l19 3 16 5 18 8 16 10 12 11 7 7 9 14 5 12 2 9v11l-2-3-2-14-5-13-7-12-11-12-11-9-15-9-16-7-17-5-12-2h-32v-3z" fill="#10183C"/>
<path transform="translate(519,1601)" d="m0 0 20 4 26 6 1 2-1 1 1 2-9 2-38-10-4-2v-2z" fill="none"/>
<path transform="translate(941,1559)" d="m0 0h8l38 10 16 5 13 3 20 1v2h-12l25 7 11 3-1 2-5-1-27-8-19-5-28-3 1-2h4l-35-9-7-3z" fill="#10183C"/>
<path transform="translate(508,932)" d="m0 0 5 1-2 5-2 14-3 5h-2l1 5-6 4-4 4v-2l-16 9-5 4 6-1-4 3-7 1v-3l19-12 11-6 3-5 1-2-14 7-5 2 5-5 3-2-1-2 14-6h2v-4l-6 3-12 7-2-1 8-6-1-2 13-4 1-3-9 3-5 3-2-1 8-6h2l-1-3 6-3z" fill="#10183C"/>
<path transform="translate(735,1108)" d="m0 0h9l1 7 1 3-16 3-15 5-4-8 4-3 15-6z" fill="none"/>
<path transform="translate(568,715)" d="m0 0h3l3 5 5 4-1 5-3 8 4-3 3-5 2-1-3 29-4-2-4-8-3-20-1 5-3-4-1-9z" fill="none"/>
<path transform="translate(622,713)" d="m0 0h7l3 2-3 2-11 3-8 5-1 2 4-3 2 1-9 15-5 13v22l-3 15-2 1v-22l2-1 1-24 2-9 3-7 6-8 9-6z" fill="none"/>
<path transform="translate(234,1606)" d="m0 0h6l3 3 3 6 1 4-20-1-15-2-3-1 2-4 1-1z" fill="none"/>
<path transform="translate(483,996)" d="m0 0 1 3-3 5-5 4 3-2h3l-1 6-14 12-9 7-1-4 2-7 6-4 4-4-5 3h-3l2-5 6-3 1-4z" fill="none"/>
<path transform="translate(542,1571)" d="m0 0h8l54 9-14-3v-1l14 1 9 2v2l10 1 17 4 4 2v3l-7-1-22-5-9-1v1l-9-1v-2l-28-5-24-4z" fill="none"/>
<path transform="translate(966,1604)" d="m0 0h14l56 5 5 2v1l-19-1-21-2h-9l51 4 8 2 2 2-31-2-9-1v-1l-22-1-9-4-16-3z" fill="none"/>
<path transform="translate(499,1605)" d="m0 0 9 1 43 11 4 1v2l-5 2-7-1-51-12 2-2z" fill="none"/>
<path transform="translate(305,1412)" d="m0 0 2 1v26l-6 7-3 5-5 2 1-8 7-11 1-3-5 8-4 2 1-9 10-19z" fill="none"/>
<path transform="translate(381,1547)" d="m0 0h7l4 2 17 2 2 1h10l4 2-3 2-21 1-12 2v2l-7-1-3-3-9-2-11-1 1-2 10-1 28 4 2-1-6-2-22-2v-2z" fill="none"/>
<path transform="translate(538,1577)" d="m0 0 11 1 36 6 9 1-3 2 32 7 3 2-9-1-75-13-6-2z" fill="none"/>
<path transform="translate(548,1261)" d="m0 0h3l-1 3-13 6-16 8-4 3 19-5 12-3h5l-3 3-18 8-19 8-4 3 10-1-3 2-6 2h-6l-1-3 10-6 29-12-21 6-8 1-1-5 28-14-8 1 3-2z" fill="#10183C"/>
<path transform="translate(548,972)" d="m0 0 2 1-6 8-10 13-1 2h-2v3l6-3 4-6 15-15h2l-2 4-11 13-7 8-2 3-1 7-2 1-1-2h-3l-1-10 1-12 5-1 11-12z" fill="none"/>
<path transform="translate(754,1161)" d="m0 0h2l2 10v9l-1 10 1 8-5 9h-2v-7l1-8-1-4-4 16-1 8-4-2 3-13 4-10 3-13 1-5v-6z" fill="#10183C"/>
<path transform="translate(936,1588)" d="m0 0h10l52 5 6 2v1h-13l-32-3 14 2 37 3 7 1-1 2-38-3-16-1-16-6-10-2z" fill="none"/>
<path transform="translate(458,1592)" d="m0 0 3 2 10 1 16 5-2 5-1 1-9-1-8-3-12-3v-2l-4 2-7 2-2 4-4-1-6-1 3-2 16-6z" fill="none"/>
<path transform="translate(527,1149)" d="m0 0 10 1 5 2-1 2-4 1 1 4-14 14-4-1v-17l4-2 4 1z" fill="none"/>
<path transform="translate(965,1650)" d="m0 0h14l10 1h14v2l39 4 19 1 18 2-1 2h-10l-56-6-8-1h-12l-30 7-2 1 1 1 19 1v1l-7 1h-11l-6-3 4-4 25-6 3-1-23-2z" fill="#10183C"/>
<path transform="translate(493,974)" d="m0 0 3 1-5 5-2 3 3 1-3 1-2 11-2 8-1 3-1 12-6 3 1-3-4 2-5 3-4 4-2-1 8-8 9-7 2-6-6 3-2-1 8-6 1-5-11 6-2-1 10-6 4-2 2-6-9 3 3-3 6-3 2-4-10 5-4 3h-2v3l-6 3-4-2 14-8 11-7z" fill="#10183C"/>
<path transform="translate(304,1643)" d="m0 0h5l2 9v5l9-2h3l1-2h-5v-3l-3-1-3-5 5 1 5 5v-6l4-1-1 11v2l2 1h-2l2 11 2 6v5l-5-1-4-20h-8l1 6-5-1-3-4 4 2-1-3-5-13z" fill="#10183C"/>
<path transform="translate(542,896)" d="m0 0 3 1 1 1v3l-10 14-11 13-4 6v5h4l-2 5-3 1-4-19 1-5h2v5l7-3 8-10-5 4-4 4-2-1 14-18z" fill="none"/>
<path transform="translate(775,1535)" d="m0 0 18 4 60 14 49 9v1l-14-1h-2l3 2h-9l-23-3-6-2 3-1 11 1 1-1-41-9-50-12z" fill="#10183C"/>
<path transform="translate(374,1681)" d="m0 0 10 1 4 4-8 2-16 2-2 2-47 1v2h-5v-2h-5l1-2 65-5 6-1-6-2z" fill="#10183C"/>
<path transform="translate(748,1576)" d="m0 0h6l-3 3-26 10-10-1-1-3 9-3-7 1-4 1h-8v-2l4-2 16-2h7l-2 2 12-3z" fill="none"/>
<path transform="translate(643,1061)" d="m0 0 2 1-13 6-25 11-24 12-19 10-23 12-7 5h-2v2l5-1 14-6v2l-20 9-4 2-3 3 2-9 6-5 5-5v2l23-11 19-10 23-12 28-13z" fill="#10183C"/>
<path transform="translate(452,1123)" d="m0 0h2l-1 6-6 13-3 8v8l4 4 2-3 3-10 2-2 1 1-1 9-3 6h3l-1 4-6 1-5-5-3-1-1-2v-10l4-13 2-2 3-8 2 1z" fill="#10183C"/>
<path transform="translate(620,694)" d="m0 0h10l10 2 1 3-8 2v2l-6 4-8-1-10-4-1-3z" fill="none"/>
<path transform="translate(335,1694)" d="m0 0h5l-2 4-19 13-23 14-19 12-13 9-11 10-1-3 8-7 12-9 21-13 17-11 16-11 1-2-6 1 4-3z" fill="#10183C"/>
<path transform="translate(471,1616)" d="m0 0 10 1 43 10 4 2-4 2-13-2-41-8-3-2z" fill="none"/>
<path transform="translate(563,1223)" d="m0 0m-3 1h3v2l-10 4 20-6 4 1-8 4-12 4-10 4-8 3 2 2-10 4h-5l1-4 9-3-1-4 6-4z" fill="#10183C"/>
<path transform="translate(254,1680)" d="m0 0 7 1 20 8-2 3-10 5-6-1-3-3 3-4v-2l-10 2-4-5z" fill="none"/>
<path transform="translate(636,1099)" d="m0 0 1 4-12 12v-3l4-5-18 7-30 14-23 11h2l3 1-3 2 8 2v1h-10l-11-1 3-4 16-8 35-16 16-8 16-6z" fill="#10183C"/>
<path transform="translate(963,1625)" d="m0 0h7l13 4 11 3-2 2-13 1-34-4 1-2z" fill="none"/>
<path transform="translate(940,1631)" d="m0 0 29 3 4 2-17 2h-21v1h-17l-1-2 2-1h7v-2z" fill="none"/>
<path transform="translate(483,1610)" d="m0 0 1 2-6 2 9 3 35 8 4 2-2 1-47-11h-6l-3 2 13 3 35 7 1 2-13-2-35-7h-8l-6 2 3-4-14-3v-2l12 2 9 1 4-2-3-1v-2h10z" fill="#10183C"/>
<path transform="translate(641,882)" d="m0 0h15l5 3 3 9-4 9-2-1 1-3-20 8-53 23-9 4-3-1 10-5 49-21 25-11h2v-8l-3-3-3-1h-10l-16 4-7 2 3-3 8-3z" fill="#10183C"/>
<path transform="translate(529,1679)" d="m0 0m-10 1 4 1 6-1-1 2-102 31-38 12h-3l1-3 9-3 1 1 38-12 43-13 39-12-2-2z" fill="#10183C"/>
<path transform="translate(998,1614)" d="m0 0 19 1 14 1v1h-8v2h17l25 2 6 2v1l-14-1-9-1h-19l-2 2h-7l-18-6z" fill="none"/>
<path transform="translate(780,1585)" d="m0 0m-1 1m-4 1h4v2l-14 6-6 2 8-1 4-1v2l-6 1v2l5 1-3 1-6-1-15 5-7-1v-5l8-2-4-2 1-2 8 1 13-4z" fill="#10183C"/>
<path transform="translate(245,1689)" d="m0 0 5 2v2l-18 13-17 12-15 11-2-1 9-8 11-9 14-12 11-9z" fill="none"/>
<path transform="translate(547,1573)" d="m0 0 11 1 37 7 2 1v2l15 1 1 3-19-1v-2h-9l-42-7v-2l42 6-31-6-7-1z" fill="#10183C"/>
<path transform="translate(548,1564)" d="m0 0 48 7 15 2 14 5-4 1-9-2-18-2-44-7-4-1v-2z" fill="none"/>
<path transform="translate(458,1603)" d="m0 0 10 1 14 4 3 2-9 4-11-1-18-5-1-2z" fill="none"/>
<path transform="translate(496,1348)" d="m0 0m-3 1h3v2l-2 1 23-1-1 3-17 7 3 2-9 5v1l9 1-2 3-11 5-2-1 3-3h3l-4-4v-3h3v-2l-3-1v-2l11-5 6-2h-16v-4z" fill="#10183C"/>
<path transform="translate(744,1129)" d="m0 0 4 1 12 17 4 6 3 11v5h-2v2 5l-3-1-3-13-2-4h3l-3-8-5-6-8-12z" fill="#10183C"/>
<path transform="translate(1195,1658)" d="m0 0 37 4v-3h4l3 3 9 2-4 2 2 3 1 8 1 1v6l2 5v3h-5l-1-1-3-18-4-7-4-2-38-4z" fill="#10183C"/>
<path transform="translate(358,1640)" d="m0 0 2 1-7 4h-3l-1 14-2 10-2 5-4 1-4-2v-15l3 1 1 12h2l1-15-5 1-2-1-1-13h3l2 9v2h4v-2h2l-1-9h6z" fill="#10183C"/>
<path transform="translate(564,719)" d="m0 0 2 1 2 10 2-4 1 1 3 20 5 9h4l1 8-4 3-3-4-4-10-1-1-1 4-5-18-3-13z" fill="#10183C"/>
<path transform="translate(800,1532)" d="m0 0 16 2 39 8 51 7 10 3 1 2-10-2-29-4-22-2-14-4-36-7-6-1z" fill="#10183C"/>
<path transform="translate(866,1594)" d="m0 0 9 1 7 2-1 8-2 2-9 1h-9l2-6 1-1v-6z" fill="none"/>
<path transform="translate(620,1169)" d="m0 0 1 3h31l7 1-1 3-5-1h-34l-13 20 2 8-5-3-1 3-1-2 1-6-3-10v-7h2l2 11v5l4-4 8-13 1-3-12-1v-2h11z" fill="#10183C"/>
<path transform="translate(478,1026)" d="m0 0h1l-1 8-6 2v4l-4 3 3 1-1 2-9 4-2-1-4 1h-2l1-4 4-4-3-1 22-14z" fill="none"/>
<path transform="translate(1126,1587)" d="m0 0 9 2 48 10 3 1-1 2-16-3 46 9 3 2-11-1-45-9-12-3-1-2-20-5-6-1z" fill="#10183C"/>
<path transform="translate(1025,1621)" d="m0 0h23l17 2 1 2-15 1 27 2v1h-16l-32-2-7-1-3-2 7-1z" fill="#10183C"/>
<path transform="translate(908,1567)" d="m0 0h9l28 3 11 4 8 4-4 1-20-3-17-4-15-4z" fill="none"/>
<path transform="translate(461,1621)" d="m0 0h8l49 10-1 2-47-6-15-2 4-3z" fill="none"/>
<path transform="translate(799,1587)" d="m0 0 6 1-1 3-13 5-10 4-4 1h-8l-4-1v-2z" fill="none"/>
<path transform="translate(488,1580)" d="m0 0 15 3 1 3 7-1 14 4v1l-6 1h-14l-21-6v-3z" fill="none"/>
<path transform="translate(475,1490)" d="m0 0 13 1 39 7 49 7 1 2-15-1-52-8-16-3-16-2-3-1z" fill="#10183C"/>
<path transform="translate(244,1242)" d="m0 0 4 2 12 12 16 12 16 9 18 6 10 1 2-1-4-2 4-1 6 3v3l-2 1h-10l-15-4-16-7-16-10-11-9-10-9-4-4z" fill="#10183C"/>
<path transform="translate(538,947)" d="m0 0 1 2-4 6-5 7 1 4 4-3 2 1-2 2-1 4-4 4-1 3 7-3 3-2-1 4-4 5-1 3h-5l-4-20v-4l6-4 7-8z" fill="none"/>
<path transform="translate(605,1664)" d="m0 0h8v3l-20 7-17 5-12 3 3-3 24-8-16 2 1-2z" fill="#10183C"/>
<path transform="translate(275,1283)" d="m0 0h6l-1 2-19 4-12 5-11 7-9 9-7 9-7 15-3 10-1-4 1-8 3-6h2l1-6 8-10 7-8 10-8 15-7z" fill="#10183C"/>
<path transform="translate(500,956)" d="m0 0h3l-2 6-9 6-14 8-7 5-3-1 4-7 8-3 2-4 10-6z" fill="none"/>
<path transform="translate(463,1655)" d="m0 0h2l3 5v2l-14 4-11 2v-2l-4 1h-7l4-3z" fill="none"/>
<path transform="translate(560,986)" d="m0 0 3 1 1 2-21 9-3 4 11-5 5-2 3 1h2l3 1-15 6-8 1-4 4-2-1 1-5 7-8 7-6h3z" fill="#10183C"/>
<path transform="translate(685,897)" d="m0 0h3l-1 7-2 9-1 5-4 6v6l-5 5-1-2v-8l6-17z" fill="none"/>
<path transform="translate(1044,1610)" d="m0 0 18 1 63 6 2 2h-12l-60-5-9-2z" fill="none"/>
<path transform="translate(804,1530)" d="m0 0 20 2 27 3 34 6 7 1 1 2-14-1-32-5-43-6z" fill="#10183C"/>
<path transform="translate(1022,1664)" d="m0 0 30 1 9 3-1 3-14 4-23 5-12 3-6 1 1-3 31-7 15-4h4v-2l-34-2z" fill="#10183C"/>
<path transform="translate(541,1287)" d="m0 0h2v2l-12 5-28 11-3 2 26-6v2l-20 5-8 3-6-1 1-3 19-9 12-4-1-2z" fill="#10183C"/>
<path transform="translate(396,1640)" d="m0 0 22 3 9 2 1 2-15 2h-9v-5l-2 6h-6z" fill="none"/>
<path transform="translate(207,1616)" d="m0 0 37 4v2l-43 2 2-4z" fill="none"/>
<path transform="translate(356,1535)" d="m0 0 13 1 3 3-12 4-5 1h-17l4-3 11-5z" fill="none"/>
<path transform="translate(231,1681)" d="m0 0 6 2v3l-26 20-4 1 4-6z" fill="none"/>
<path transform="translate(879,1626)" d="m0 0 23 1 28 3 1 2-8 2h-8l-33-6z" fill="none"/>
<path transform="translate(726,1554)" d="m0 0h9l10 2 1 2h-20l3 2-9-1-5-1-1 1 9 1 6 2-3 1-3-1v2l-10-2-10-3 2-2z" fill="none"/>
<path transform="translate(849,1716)" d="m0 0 8 1 13 3 13 1 14 3 3 3-1 1-12-1-24-5-14-4z" fill="#10183C"/>
<path transform="translate(1293,1659)" d="m0 0h5v2l7 2 3 5 2 9 1 9 1 3h5l-1 2h-6l-4-4-1-2-2-14-3-5-7-6z" fill="#10183C"/>
<path transform="translate(537,1590)" d="m0 0 25 5 13 2 1 3 10 1 38 10 27 8 2 2-10-2-42-12-27-6-5-2-32-7z" fill="#10183C"/>
<path transform="translate(1146,1648)" d="m0 0 18 1 18 2 5 3v3l-15-1-15-3-11-4z" fill="none"/>
<path transform="translate(1020,234)" d="m0 0h4l2 5-1 5h-7l-15-2-2-3 8-3z" fill="none"/>
<path transform="translate(360,958)" d="m0 0v3l-6 12-1 3-1 11h6l3 2v6l-2 2h-5l-3-3-2-7v-9l5-13z" fill="#10183C"/>
<path transform="translate(933,1643)" d="m0 0m-4 1h4v2l25 2-2 2-17 1-6 1v1l-11-1-7-3 2-2z" fill="#10183C"/>
<path transform="translate(391,1689)" d="m0 0h2l-1 4-11 9-13 10-6 2 5-5 14-12 4-3-9 2-13 6-3-1 16-8 8-3z" fill="#10183C"/>
<path transform="translate(534,1299)" d="m0 0 4 1-3 3-5 3h8v3l-6 3-2-1 3-2-10 1-16 5h-8l3-3 27-9 1-3z" fill="#10183C"/>
<path transform="translate(529,1106)" d="m0 0 8 1-1 4-8 9h-2l-1 7-5 10h-1l1-11 3-7 2-7z" fill="none"/>
<path transform="translate(630,851)" d="m0 0 3 1-14 14-11 7-2-1-7 3 1-3 12-9 13-9z" fill="none"/>
<path transform="translate(586,1660)" d="m0 0h3v2l-25 7-14 4-5-1-4-3 12-3z" fill="none"/>
<path transform="translate(744,1173)" d="m0 0h2l-2 18-2 6-5 11-2 10-1 3-3-3-1-2v-9l3-3 1 2 4-11 3-5 2-13z" fill="#10183C"/>
<path transform="translate(670,1148)" d="m0 0h2l9 39v28l-2 2-3-37-6-30z" fill="#10183C"/>
<path transform="translate(294,1607)" d="m0 0h28v1l-20 1 12 2 31 2 29 1 15 1v1h-24l-42-2-27-3-4-1v-2z" fill="#10183C"/>
<path transform="translate(543,1632)" d="m0 0 8 1 35 9-3 2-13-1-13-3v-2l-9-1-7-2 2-1z" fill="none"/>
<path transform="translate(831,1582)" d="m0 0h27l5 2-2 6h-7l-3-1 1-5h-7v4l-16-3-3-2z" fill="none"/>
<path transform="translate(287,1519)" d="m0 0m-3 1h3v2l-10 5-4 1-14 5-29 13-17 8-3-1 31-15 36-16z" fill="#10183C"/>
<path transform="translate(631,841)" d="m0 0h5l-5 6-12 9-16 8-2-1 6-5 9-7 8-5 3-4z" fill="none"/>
<path transform="translate(624,977)" d="m0 0 2 1-8 3-30 11-33 14-3 1 1 2-9 4h-6l5-5 25-10 32-13z" fill="#10183C"/>
<path transform="translate(624,676)" d="m0 0h16l14 4 2 4-4 2-6-1-10-4-4-1-13-1 2-2z" fill="none"/>
<path transform="translate(399,1623)" d="m0 0h9l-4 5 4 1-3 1-1 4h-8v-6l-2-1 1 3-2 5h-7v-3l4-7 3-1h4z" fill="none"/>
<path transform="translate(323,991)" d="m0 0h5l-3 2-14 8-10 9-6 9-2 6v8l-4-2-1-3 3-8 5-10 9-9 14-8z" fill="#10183C"/>
<path transform="translate(369,1323)" d="m0 0h13l12 2 1 2h-10l-8 1h-13l-16-2 2-2z" fill="none"/>
<path transform="translate(658,908)" d="m0 0h2l3 9v8l-2-1v-4l-17 6-35 15-23 10-3-1 22-10 38-16 15-6h2z" fill="#10183C"/>
<path transform="translate(652,752)" d="m0 0h2v9l-5 23 2 2-5 4-5 1 2-4 4-2-2-4 1-8z" fill="none"/>
<path transform="translate(698,879)" d="m0 0 1 2 1 8-6 12-7 12h-1l1-9 7-19z" fill="none"/>
<path transform="translate(451,1627)" d="m0 0 17 1 25 4v1h-38l-5-5z" fill="none"/>
<path transform="translate(629,681)" d="m0 0 10 2 2 1v2h-16l-1-1-9 1-14 8-5 2-2-1 1-3 8-4 18-6z" fill="none"/>
<path transform="translate(234,1695)" d="m0 0v3l-13 12-22 18 9-6 2 1-13 10-5 4-4-1 3-5 14-11 14-12 11-9z" fill="#10183C"/>
<path transform="translate(263,1707)" d="m0 0m-1 1m-1 1v3l-34 23-16 12 3 2-3 2h-4l1-5 17-13 33-22z" fill="#10183C"/>
<path transform="translate(248,1700)" d="m0 0m-1 1m-1 1m-1 1m-1 1m-1 1m-1 1m-1 1v3l-16 13-20 15v3l-6 5h-4l1-4 5-4 9-7 13-10 14-11z" fill="#10183C"/>
<path transform="translate(437,1616)" d="m0 0h7l14 3v3l-5 2h-15l-8-1 2-2 7-1 1-2h-3z" fill="none"/>
<path transform="translate(869,1585)" d="m0 0h10l6 1-1 6-3 3-14-3v-3z" fill="none"/>
<path transform="translate(326,1415)" d="m0 0h2l-3 9-1 11h2l1-3 1 2-3 6-1 12 1 2-3 12-5 1 2-4 2-8 1-8h-2l-1 4-2-1 5-11 1-12h-2l2-9-2-1 3-1 2 1z" fill="#10183C"/>
<path transform="translate(615,814)" d="m0 0h2l-2 4-9 9-8 7-14 12-13 12-6 6v3l-4 2v-5l16-15 12-11 11-9 8-8 5-4z" fill="#10183C"/>
<path transform="translate(443,1610)" d="m0 0 10 1 17 4-1 2-4 2-9-1-16-4z" fill="none"/>
<path transform="translate(776,1604)" d="m0 0 15 3 1 2-16 3h-16l1-2z" fill="none"/>
<path transform="translate(695,1510)" d="m0 0h8l27 6 1 3-11-1-9-1-8-1-6-3z" fill="#10183C"/>
<path transform="translate(234,1026)" d="m0 0 3 1-5 3-11 7-8 7-9 14-4 8-2 6h-2l1-6 8-15 10-13 8-7 8-4z" fill="#10183C"/>
<path transform="translate(690,1644)" d="m0 0 13 2 24 5v2h-12l-13-3-13-2-4-3z" fill="#10183C"/>
<path transform="translate(827,1603)" d="m0 0h4v7l-10 1h-9l-8-2 3-2z" fill="none"/>
<path transform="translate(540,1586)" d="m0 0 13 2 22 4h11l32 8 2 2-8-1-20-5-26-3-26-5z" fill="#10183C"/>
<path transform="translate(483,996)" d="m0 0 1 3-3 5-6 4-2 3-8 3-4 1 2-5 6-3 1-4z" fill="none"/>
<path transform="translate(892,1588)" d="m0 0 15 1-2 5-3 4-13-2 1-6z" fill="none"/>
<path transform="translate(571,1069)" d="m0 0 3 1-22 11-7 4 3 2-9 6-5 5 2-5 1-2h-3l2-5 3-3v2l8-5 10-4z" fill="#10183C"/>
<path transform="translate(180,1329)" d="m0 0 9 1 5 2-2 2-13-1-6 4-7 8-6 10-2 1 1-6 8-12 5-6z" fill="#10183C"/>
<path transform="translate(870,1557)" d="m0 0 21 3 11 2v1l-14-1h-2l3 2h-9l-23-3-6-2 3-1 11 1h5z" fill="#10183C"/>
<path transform="translate(550,1570)" d="m0 0h10l30 5v2l11 1 6 2-3 1-54-9z" fill="#10183C"/>
<path transform="translate(317,1432)" d="m0 0 1 3-2 3v10l-2 4-1-1-2 5-4-3v-11l-5 3 2-4 4-3 1 5 2 1v-5l2-1 1-5z" fill="#10183C"/>
<path transform="translate(933,1592)" d="m0 0h8l-1 11-1 3h-7l-2-1 1-8z" fill="none"/>
<path transform="translate(209,1347)" d="m0 0h2l3 16 6 12 5 5 10 8v2l-4-1-9-7-8-11-4-9-1-5z" fill="#10183C"/>
<path transform="translate(484,988)" d="m0 0h2l-1 6-21 12h-2l1-4 8-4-3-1 13-8z" fill="none"/>
<path transform="translate(615,841)" d="m0 0 4 1v2l-10 4-13 10-4 3v3l-4 2 1 2-2 1h-7l5-5 8-7 9-7-7 1 2-2 15-6z" fill="#10183C"/>
<path transform="translate(1119,1623)" d="m0 0h3v2h27v1l25 3 18 2 1 2h-22l1-2-53-5z" fill="#10183C"/>
<path transform="translate(1081,1619)" d="m0 0 37 3v3h-10l-27-2-1-1-8-1v-1z" fill="#10183C"/>
<path transform="translate(642,1567)" d="m0 0h14v2l-9 1 9 1-1 3 5 1-3 1-12-3h-7l-1 2-5-2-1-3 4-2z" fill="#10183C"/>
<path transform="translate(542,1075)" d="m0 0v3l-8 13h3l-2 5-8 11-3 2 1-7 12-22z" fill="none"/>
<path transform="translate(788,1585)" d="m0 0h7l1 2-32 11h-6l3-3 11-4z" fill="none"/>
<path transform="translate(623,1225)" d="m0 0 3 3v7l-3 8h-4l-1 9-2 2 1-13 2-10z" fill="none"/>
<path transform="translate(628,817)" d="m0 0v3l-10 9-14 11-15 12 1 2-8 4-3 4h-3l1-4 26-20 11-9z" fill="#10183C"/>
<path transform="translate(469,1060)" d="m0 0 4 1-2 11-7 4-2-1 3-3h3v-2l-6 4h-2v-7l4-2 2-4z" fill="none"/>
<path transform="translate(656,1247)" d="m0 0 1 2-6 21-3 14h2l1-2v7l7 12 4 5h-3l-7-10-5-8-2-5v-5l3-9 3-8 4-13z" fill="#10183C"/>
<path transform="translate(599,1587)" d="m0 0 14 1 33 7 2 4-12-2-32-8-5-1z" fill="none"/>
<path transform="translate(998,1647)" d="m0 0 5 1 10-1-1 2h-8v2l-5 1h-10l-24-2v-1l6-1z" fill="none"/>
<path transform="translate(1030,1626)" d="m0 0 32 2 27 2 6 2v1l-31-2-32-3z" fill="none"/>
<path transform="translate(432,1534)" d="m0 0h12l2 2-9 3-6-1-6 3h-6l-3-3 5-3z" fill="none"/>
<path transform="translate(321,1427)" d="m0 0h2v12l-6 13h-2v-14z" fill="none"/>
<path transform="translate(505,946)" d="m0 0h2v4l-14 6-2 4-14 8h-2l2-6 7-1 3-2v-3l11-6z" fill="none"/>
<path transform="translate(670,1651)" d="m0 0 14 1 35 6 1 2-9 1-32-7-9-2z" fill="none"/>
<path transform="translate(550,1252)" d="m0 0h5l1 2-33 13h6l-2 2-9 3-5-1 1-3 28-11 5-2-1-2z" fill="#10183C"/>
<path transform="translate(565,1233)" d="m0 0h6l-4 3-29 11 1 2-13 5h-4l1-3 16-7 25-10z" fill="#10183C"/>
<path transform="translate(619,843)" d="m0 0h3l-2 4-7 4-20 11-2-1 14-11 5-4z" fill="none"/>
<path transform="translate(503,940)" d="m0 0h5l-1 4-11 4-5 5-12 7-1-3 2-5 8-1 3-2-1-2 10-6z" fill="none"/>
<path transform="translate(587,1670)" d="m0 0h5l-1 2-24 8-6 1-3-2v-2l15-4z" fill="none"/>
<path transform="translate(951,1585)" d="m0 0h9l7 2v-2l18 2 7 3v1h-10l-20-2-10-2z" fill="none"/>
<path transform="translate(557,951)" d="m0 0h2l-1 3-6 4-1 4-7 6-1-2-9 6 2-4 4-6 7-3v-3z" fill="none"/>
<path transform="translate(1055,1637)" d="m0 0 19 2 2 1v-2l25 4 21 2v1h-21l-20-3-21-2-6-1z" fill="#10183C"/>
<path transform="translate(531,1597)" d="m0 0 30 6h11l2 1v3l8 1 15 4-4 1-21-5-37-8-4-1z" fill="#10183C"/>
<path transform="translate(801,1560)" d="m0 0 10 2 11 3-2 2-9 1-17-4 4-3z" fill="none"/>
<path transform="translate(752,1520)" d="m0 0 9 1 35 7 8 2v2l-9 1-2-2-6-1v-2l-10-1-24-5z" fill="#10183C"/>
<path transform="translate(272,1717)" d="m0 0 1 2-25 14-20 13 6-1-3 3-6 1-1-2 4-5 11-6 15-9z" fill="#10183C"/>
<path transform="translate(522,1321)" d="m0 0h3v2l-20 9-7 4 12-1-3 2-9 3h-5l-2-3 10-6 16-8z" fill="#10183C"/>
<path transform="translate(557,1246)" d="m0 0 3 1-15 6 1 2-10 3-15 6-4-1 8-5z" fill="#10183C"/>
<path transform="translate(1573,339)" d="m0 0h15l-2 2-10 2-10 1h-15l3-3z" fill="none"/>
<path transform="translate(976,1601)" d="m0 0 23 1 23 2 8 2v1h-10l-33-3-11-2z" fill="none"/>
<path transform="translate(1018,1649)" d="m0 0m-3 1 3 1 1 1 21 3 6 2-4 1-36-4-3-2z" fill="none"/>
<path transform="translate(771,1573)" d="m0 0h14l8 1v2l-7 1-4 2h-7l-10-2 4-3z" fill="none"/>
<path transform="translate(485,981)" d="m0 0h3l-1 4-4 3-12 6-5 4-7 1 2-6 5 1 6-2v-3z" fill="none"/>
<path transform="translate(482,1021)" d="m0 0h2l-2 4-2 6-2-4-10 7-8 5-2-1 3-3h2l-1-3 4-3 5-3 5-1 1-3v2z" fill="#10183C"/>
<path transform="translate(542,896)" d="m0 0 3 1-3 7-6 7-8 7-3 3-2-1 14-18z" fill="none"/>
<path transform="translate(633,754)" d="m0 0 1 3-2 17 2-7 1 4-3 14-4 1v-14l4-17z" fill="#10183C"/>
<path transform="translate(613,1208)" d="m0 0 7 2-1 7-7 10-1-4v-12z" fill="none"/>
<path transform="translate(621,1191)" d="m0 0 1 2-2 5v8l-3-4-1 4 1 3h-4l-1 4v10l-2 1v-9l-4 2 2-6 2-2v-3l-2-1 1-2 4 2 2-4 2-8 2 1z" fill="#10183C"/>
<path transform="translate(617,848)" d="m0 0m-1 1v3l-9 7-5 5-1 3-9 4-4 1 3-3 4-1 2-4 7-6-2-2z" fill="#10183C"/>
<path transform="translate(626,1528)" d="m0 0h5v3l-9 1-21 7-13 6h9l-4 2h-8l-1-2 2-3 16-6z" fill="#10183C"/>
<path transform="translate(595,818)" d="m0 0m-1 1m-1 1m-1 1m-1 1m-1 1m-1 1m-1 1m-1 1v3l-15 14-8 7-4 5-3 4-4-1 2-4 11-9 16-15z" fill="#10183C"/>
<path transform="translate(1030,1627)" d="m0 0 34 3 26 2 3 2-20-1-13-1h-15l-14-2z" fill="#10183C"/>
<path transform="translate(640,1502)" d="m0 0 4 2-3 7-3-1-16-1 4-3 8-3z" fill="none"/>
<path transform="translate(313,1501)" d="m0 0 1 3-3 4-1 4 4-1 5-5 4-3-2 5-3 5-7 2h-6v-8l6-4z" fill="none"/>
<path transform="translate(647,715)" d="m0 0h5l1 1 7 1v2l-10 2-2 4-5 1v-8l1-2z" fill="none"/>
<path transform="translate(555,910)" d="m0 0 2 2-7 10-2 2-9 3 6-10 4-4z" fill="none"/>
<path transform="translate(350,1333)" d="m0 0 30 1 11 1h8l4 2h-19l-34-1-2-2z" fill="none"/>
<path transform="translate(471,1589)" d="m0 0 7 1 11 3v4l-3 1-17-5-2-2z" fill="none"/>
<path transform="translate(403,1558)" d="m0 0h13l-3 3-6 3h-9l-6-2 1-2z" fill="none"/>
<path transform="translate(482,1320)" d="m0 0h1v7l-5 22-5 10-1-3 8-30z" fill="none"/>
<path transform="translate(540,1574)" d="m0 0 14 1 32 6-1 2-39-6-6-2z" fill="none"/>
<path transform="translate(464,1055)" d="m0 0h1v5l-6 7-5 5-3 1v-7l5-2-1-3z" fill="none"/>
<path transform="translate(657,660)" d="m0 0 8 1 6 4 7 8-1 3-7-6-10-6z" fill="none"/>
<path transform="translate(468,1047)" d="m0 0 1 3-6 5-9 6-3-1 1-7 8-2z" fill="none"/>
<path transform="translate(172,1619)" d="m0 0 4 1-3 3-6 2-8 8-14 11-12 9-2-1 14-11 10-8 10-9 5-4z" fill="#10183C"/>
<path transform="translate(546,1035)" d="m0 0h2l-2 10-2 4-7 3 2-10 4-3v-3z" fill="none"/>
<path transform="translate(645,669)" d="m0 0 8 1 8 3-1 3-16-1-3-2v-3l4 1z" fill="none"/>
<path transform="translate(401,1671)" d="m0 0h3v2l-16 4 8-1 6-1v2l-10 3h-8l-2-4 7-3z" fill="#10183C"/>
<path transform="translate(552,1045)" d="m0 0 3 1-9 14-5 3 1-5 5-10z" fill="none"/>
<path transform="translate(481,1429)" d="m0 0v3l-8 4-18 2 1-2 15-5z" fill="none"/>
<path transform="translate(849,1600)" d="m0 0h8l3 3-3 6h-8z" fill="none"/>
<path transform="translate(583,747)" d="m0 0h2l3 16-1 11-2-1-2-9-1-15z" fill="none"/>
<path transform="translate(593,880)" d="m0 0 1 2-28 13-6 3h-2l-2 5-4 5-2-1 2-4 2-1v-3l15-8z" fill="#10183C"/>
<path transform="translate(843,1601)" d="m0 0 3 1v7l-1 1h-10v-7l1-1z" fill="none"/>
<path transform="translate(342,1473)" d="m0 0 2 4-6 8-7 10-5 8-3 2 2-7 3-1 2-5 5-7 4-8z" fill="#10183C"/>
<path transform="translate(697,901)" d="m0 0h2l-2 5-8 12-6 7-1-3 10-16z" fill="none"/>
<path transform="translate(551,1235)" d="m0 0m-5 1 7 1-1 3-18 7-3-1 4-3 3-1-1-2z" fill="none"/>
<path transform="translate(686,904)" d="m0 0 1 4v3l5-5-2 5-7 11 1 1 5-4-2 4-5 7h-2l-1-6 5-7 1-10z" fill="#10183C"/>
<path transform="translate(823,1631)" d="m0 0 12 1 25 5 10 3-1 2-37-8-9-2z" fill="none"/>
<path transform="translate(852,1610)" d="m0 0h5l1 3-2 8-2 1-5-2v-9z" fill="none"/>
<path transform="translate(453,1597)" d="m0 0h2v2l12 2 8 3 5 2-4 1-14-3-10 1 3-3-4-1z" fill="#10183C"/>
<path transform="translate(947,1594)" d="m0 0 6 1 2 1-2 9h-9z" fill="none"/>
<path transform="translate(535,918)" d="m0 0h5l-1 4-7 8-6 5h-2l2-5z" fill="none"/>
<path transform="translate(646,749)" d="m0 0h1l-1 11-5 22-3 2 1-9z" fill="none"/>
<path transform="translate(662,1258)" d="m0 0 1 3-5 15-1 9 5 2-4 1-3-1-1-2v-8l5-13z" fill="#10183C"/>
<path transform="translate(471,1152)" d="m0 0h1v6l-3 6-7 1 1-5 3-7z" fill="none"/>
<path transform="translate(741,1551)" d="m0 0h8l-6 3 1 2-9-1h-9l-23 3 1-2 19-3z" fill="#10183C"/>
<path transform="translate(636,1099)" d="m0 0 1 4-12 12v-3l4-5-11 4-3-1 4-3 14-5z" fill="#10183C"/>
<path transform="translate(580,818)" d="m0 0v3 3l-7 3-11 9-3 4h-3l1-4 9-7 1-3 10-5z" fill="#10183C"/>
<path transform="translate(1040,1625)" d="m0 0h35l7 2v1h-18l-24-2z" fill="none"/>
<path transform="translate(1367,1671)" d="m0 0 5 1v2l5 1 3 3 1 8-1 2h-4v-6l-5-7z" fill="#10183C"/>
<path transform="translate(618,675)" d="m0 0 2 1-9 4-12 7-5 2 3-5 5-4 10-4z" fill="none"/>
<path transform="translate(906,1601)" d="m0 0 6 2-2 7-5 2h-4l3-9z" fill="none"/>
<path transform="translate(665,1419)" d="m0 0h3v6l-6 12h-2l1-6 2-6-4 5-2-1z" fill="#10183C"/>
<path transform="translate(762,1729)" d="m0 0h10l10 3 3 2-1 2-16-3-6-2z" fill="none"/>
<path transform="translate(783,1555)" d="m0 0 10 2-1 3-3 1h-15l-1-2z" fill="none"/>
<path transform="translate(549,1024)" d="m0 0 3 1-3 8-6 3h-2l1-7 3-3z" fill="none"/>
<path transform="translate(314,1399)" d="m0 0h1v15l-4 7-2-1 2-11 1-9z" fill="none"/>
<path transform="translate(862,1581)" d="m0 0h17l14 1 3 2-14 1-20-3z" fill="none"/>
<path transform="translate(613,1234)" d="m0 0h3l-1 9-6 5-1-6 2-7z" fill="none"/>
<path transform="translate(628,1209)" d="m0 0h5l1 4-4 15v10l-4-3-1-8 3-1 3-11h-2l1-3 1-1-4-1z" fill="#10183C"/>
<path transform="translate(290,1551)" d="m0 0v3l-5 2-22 1 2-2z" fill="none"/>
<path transform="translate(320,1447)" d="m0 0h2v10l-3 7-3 1v-11z" fill="none"/>
<path transform="translate(554,1057)" d="m0 0h2l-2 5-5 7-4 2-3-1 3-4 2-5z" fill="none"/>
<path transform="translate(667,1567)" d="m0 0h10l17 5-3 2-11-2-13-4z" fill="none"/>
<path transform="translate(563 1e3)" d="m0 0h2v2l-13 5 1 2-9 4h-6l5-5z" fill="#10183C"/>
<path transform="translate(685,936)" d="m0 0v3l-7 7 8-2-5 5-5 3h-4l2-6z" fill="#10183C"/>
<path transform="translate(298,1560)" d="m0 0h14l-3 3-20 3v-2l5-2z" fill="none"/>
<path transform="translate(476,1018)" d="m0 0 3 1-3 6-5 2-5 3-5 2 2-4 8-7z" fill="none"/>
<path transform="translate(494,1595)" d="m0 0 11 2 3 1v2l-2 1h-10l-4-2z" fill="none"/>
<path transform="translate(152,1571)" d="m0 0h12l10 2 2 2 10 2v1l-11-1-23-5z" fill="none"/>
<path transform="translate(313,1428)" d="m0 0h1v10l-3 1v5l-3-1 1-8-1-5z" fill="none"/>
<path transform="translate(539,938)" d="m0 0h4l-1 4v3l-3 2h-2l-6 6h-2l2-4z" fill="none"/>
<path transform="translate(689,731)" d="m0 0 4 2-2 6-7 9-3-2 1-5 4-1z" fill="none"/>
<path transform="translate(591,677)" d="m0 0h2l-1 5-3 5-8 7-1-2 6-10z" fill="none"/>
<path transform="translate(693,1629)" d="m0 0h6l8 7 1 2-18-4v-1l5-1z" fill="none"/>
<path transform="translate(656,1568)" d="m0 0h10l8 3v1l-27-1-1-2z" fill="none"/>
<path transform="translate(633,1545)" d="m0 0 4 1v2l-19 3h-8l3-2z" fill="none"/>
<path transform="translate(622,679)" d="m0 0h10l5 2v1l-16 1-10 3-3-1 5-3 9-1z" fill="#10183C"/>
<path transform="translate(841,1611)" d="m0 0h5v6l-4 2-6-2-1-5z" fill="none"/>
<path transform="translate(556,995)" d="m0 0 3 1h2l3 1-15 6h-8l1-2z" fill="#10183C"/>
<path transform="translate(321,1418)" d="m0 0h2l-1 7-3 7-4 1 1-9z" fill="none"/>
<path transform="translate(565,1215)" d="m0 0 4 1v3l-18 5-4-1z" fill="none"/>
<path transform="translate(669,1540)" d="m0 0 8 1 2 4-5 1h-7l-3-3z" fill="none"/>
<path transform="translate(388,1623)" d="m0 0 2 1-7 11-5 1v-5l8-7z" fill="none"/>
<path transform="translate(663,1424)" d="m0 0 1 2-5 12-4 7h-1v-6l6-12z" fill="none"/>
<path transform="translate(274,1375)" d="m0 0h3v2l-2 2-1 3 4-1-2 4-4 3h-2v-11z" fill="none"/>
<path transform="translate(501,937)" d="m0 0 1 2-17 10-4 1 1-4 15-7z" fill="none"/>
<path transform="translate(661,1630)" d="m0 0 11 1 21 5v1l-10-1-19-3z" fill="none"/>
<path transform="translate(541,1287)" d="m0 0h2v2l-12 5-5 2-3-1v-3z" fill="#10183C"/>
<path transform="translate(552,1025)" d="m0 0h1l1 5 3 1-5 3 1 2-3 3-1 3h-2l1-7-5 1 2-2 4-2z" fill="#10183C"/>
<path transform="translate(764,1616)" d="m0 0h7l12 3 14 3v1l-13-1-15-3-5-2z" fill="none"/>
<path transform="translate(886,1599)" d="m0 0 6 1 4 4-4 2h-8z" fill="none"/>
<path transform="translate(954,1579)" d="m0 0 15 1 7 3 1 2-12-1-11-4z" fill="none"/>
<path transform="translate(620,1553)" d="m0 0m-3 1h3v2l-9 1v2l8-2 4 1-1 1-7 1h-10v-3z" fill="#10183C"/>
<path transform="translate(501,925)" d="m0 0 1 2-6 8-10 6h-2v-4l9-3-1-3 8-5z" fill="none"/>
<path transform="translate(675,749)" d="m0 0 2 1v5l1 3-4 10-1-3v-6l-1-4z" fill="none"/>
<path transform="translate(571 1e3)" d="m0 0 3 1-10 5 2 1-9 3-7 1 1-3 13-5z" fill="#10183C"/>
<path transform="translate(494,948)" d="m0 0 2 1-9 6-9 5 1-6 2-2 7-1z" fill="none"/>
<path transform="translate(594,707)" d="m0 0 2 1-5 8-4 8h-3l1-5 6-9z" fill="none"/>
<path transform="translate(682,1647)" d="m0 0 35 7v4l-4-1-2-2-29-6z" fill="#10183C"/>
<path transform="translate(820,1585)" d="m0 0 10 1 10 2v1h-19l-5-1 1-2z" fill="none"/>
<path transform="translate(542,948)" d="m0 0h3l1 2 3-1-2 4-3 3-3-1-4 4-2-1z" fill="none"/>
<path transform="translate(851,1743)" d="m0 0h3l-1 3-5 1h-21v-2l23-1z" fill="#10183C"/>
<path transform="translate(497,1576)" d="m0 0 10 2 2 2-1 2h-7l-6-2v-3z" fill="none"/>
<path transform="translate(546,1254)" d="m0 0 3 1-25 10-3-1 10-5 10-4z" fill="none"/>
<path transform="translate(1074,1606)" d="m0 0h5v2l25 2 6 1v1l-20-1-17-2z" fill="#10183C"/>
<path transform="translate(511,1581)" d="m0 0 8 1 9 3v2l-9-1-9-2z" fill="none"/>
<path transform="translate(533,933)" d="m0 0h5l1 2h-3l-1 3-5 5-4 5-2-1 5-8z" fill="none"/>
<path transform="translate(618,869)" d="m0 0v3l-7 10-4 2-3-1 6-7z" fill="none"/>
<path transform="translate(677,726)" d="m0 0h1l1 17-5 1-3 7-1-4 3-6 3-2v-12z" fill="none"/>
<path transform="translate(586,691)" d="m0 0 1 3-3 4h-2l4 5-5 3h-3l1-6z" fill="none"/>
<path transform="translate(632,659)" d="m0 0h12l-1 3-4 1h-9l-3-2z" fill="none"/>
<path transform="translate(495,1590)" d="m0 0 9 2v2l6-1 5 2-1 2-9-1-10-3z" fill="none"/>
<path transform="translate(476,1586)" d="m0 0h9l10 3-3 3-9-2-7-3z" fill="none"/>
<path transform="translate(705,1513)" d="m0 0 10 1 15 3 1 2-11-1-14-3z" fill="none"/>
<path transform="translate(457,1439)" d="m0 0 4 1-10 5-7 2 2-6z" fill="none"/>
<path transform="translate(914,1590)" d="m0 0h3l-1 6-2 4h-6l2-5z" fill="none"/>
<path transform="translate(286,1561)" d="m0 0h6l-4 3-15 5-4-1 12-5z" fill="none"/>
<path transform="translate(548,1056)" d="m0 0 1 2 5-1-3 3-4 2-3 7-3 1 1-7z" fill="#10183C"/>
<path transform="translate(491,957)" d="m0 0 2 1-10 7-6 3h-2l2-6 7-1z" fill="none"/>
<path transform="translate(517,1575)" d="m0 0h9l8 1-1 3-3 1-14-3z" fill="none"/>
<path transform="translate(943,1618)" d="m0 0 12 1 14 2 2 2-9 1-15-4z" fill="none"/>
<path transform="translate(807,1576)" d="m0 0 12 1 3 2-2 1h-14l-2-2z" fill="none"/>
<path transform="translate(655,1572)" d="m0 0 19 3 4 2-3 2-20-5z" fill="none"/>
<path transform="translate(621,1217)" d="m0 0 2 1-1 7-7 6h-2l2-4z" fill="none"/>
<path transform="translate(146,1576)" d="m0 0h7l18 4v1l-13-1-12-2z" fill="none"/>
<path transform="translate(550,1193)" d="m0 0h2l1 3-13 6h-3l1-3z" fill="#10183C"/>
<path transform="translate(566,1037)" d="m0 0 3 1-9 5-5 6-4 4 2-5 1-2-2-2 5-3h2l1-3z" fill="#10183C"/>
<path transform="translate(675,1526)" d="m0 0 4 1-1 2-13 6h-4v-2z" fill="none"/>
<path transform="translate(304,1346)" d="m0 0h3v8h2l-2 10-2-2z" fill="#10183C"/>
<path transform="translate(710,1061)" d="m0 0v3l-5 6-6 9-3-1 4-7 5-5z" fill="#10183C"/>
<path transform="translate(434,1586)" d="m0 0 1 3-5 8-5 4h-5l5-4 4-5 4-4z" fill="none"/>
<path transform="translate(779,1569)" d="m0 0h7l14 3-2 2-21-3z" fill="none"/>
<path transform="translate(629,1146)" d="m0 0h18l-1 2-15 2-2-1z" fill="none"/>
<path transform="translate(317,1669)" d="m0 0 2 3 3 5 5 5 1 3h-5l-4-8-3-5z" fill="#10183C"/>
<path transform="translate(745,1552)" d="m0 0h15l-4 3h-13l-2-2z" fill="none"/>
<path transform="translate(466,1422)" d="m0 0 3 1-8 5-6 2-4-1 5-3z" fill="none"/>
<path transform="translate(326,1415)" d="m0 0h2l-3 9-1 11h-1v-8h-2l2-9-2-1 3-1 2 1z" fill="#10183C"/>
<path transform="translate(667,1350)" d="m0 0h1v7l-5 16h-1l1-9z" fill="none"/>
<path transform="translate(659,1345)" d="m0 0 1 4v10l-2-1-3 7-1-4 4-15z" fill="none"/>
<path transform="translate(526,1330)" d="m0 0h3l-1 3-10 3-8-1 4-2 8-1z" fill="#10183C"/>
<path transform="translate(726,1591)" d="m0 0 6 1v2l-6 2h-8l4-4z" fill="none"/>
<path transform="translate(793,1528)" d="m0 0 9 1 2 1v2l-9 1-2-2-6-1v-1z" fill="#10183C"/>
<path transform="translate(533,1079)" d="m0 0 3 1-8 14-1-2 3-10z" fill="none"/>
<path transform="translate(518,873)" d="m0 0 1 2-1 4 3-2-2 4-3 4h-2l-1 2v-7z" fill="#10183C"/>
<path transform="translate(850,1592)" d="m0 0 10 1 1 3-1 3h-2v-2l-7-1z" fill="none"/>
<path transform="translate(315,1542)" d="m0 0h6l2 3-9 2h-6l4-4z" fill="none"/>
<path transform="translate(631,1210)" d="m0 0 1 2-8 8-1-7 2-2z" fill="none"/>
<path transform="translate(697,1023)" d="m0 0v3l-8 13-4 6-2-1v-2h3l2-6 6-10z" fill="none"/>
<path transform="translate(505,930)" d="m0 0h3l-1 4-11 5-3-1 11-7z" fill="none"/>
<path transform="translate(574,1222)" d="m0 0m-4 1 4 1-7 3-16 4 1-2z" fill="none"/>
<path transform="translate(345,1550)" d="m0 0h14v2l-5 1h-11v-2z" fill="none"/>
<path transform="translate(548,906)" d="m0 0 3 1-4 5-4 2-4-1 6-6z" fill="none"/>
<path transform="translate(447,1597)" d="m0 0m-3 1 3 1-4 4-1 2-4-1-6-1 3-2z" fill="none"/>
<path transform="translate(925,1591)" d="m0 0 1 4-2 8-5-1 2-5z" fill="none"/>
<path transform="translate(639,842)" d="m0 0 3 1-3 5-10 2 5-5z" fill="none"/>
<path transform="translate(594,721)" d="m0 0 1 2-5 16-2 1 1-9 3-8z" fill="none"/>
<path transform="translate(615,692)" d="m0 0h5l-1 2-13 5-3-1 4-3z" fill="none"/>
<path transform="translate(619,665)" d="m0 0h9l6 1-2 2h-16v-2z" fill="none"/>
<path transform="translate(511,1600)" d="m0 0h6l-2 4-1 1-8-1v-2z" fill="none"/>
<path transform="translate(746,1589)" d="m0 0 4 1-9 2v2l2 1h-10-3l2-4h8z" fill="#10183C"/>
<path transform="translate(770,1552)" d="m0 0 6 1-3 2-6 2h-8l2-2z" fill="none"/>
<path transform="translate(554,925)" d="m0 0 3 1-4 4-10 4 1-3z" fill="none"/>
<path transform="translate(636,704)" d="m0 0 8 1 1 2-11 1-6 1v-2z" fill="none"/>
<path transform="translate(352,1632)" d="m0 0 2 3-4 6h-3v-4l2-1-8-1v-1l9-1z" fill="#10183C"/>
<path transform="translate(279,1364)" d="m0 0 3 1-10 8-3 2v-6l7-3z" fill="none"/>
<path transform="translate(510,1335)" d="m0 0h5l-2 2-11 4h-5l3-3z" fill="none"/>
<path transform="translate(627,745)" d="m0 0h1l-1 11-2 6h-2l1-9z" fill="#10183C"/>
<path transform="translate(458,1592)" d="m0 0 2 2-3 3-6 2-4-1 8-5z" fill="none"/>
<path transform="translate(307,1459)" d="m0 0h2l-1 5-8 10-2-1 6-9z" fill="#10183C"/>
<path transform="translate(678,906)" d="m0 0 1 3-5 12h-2l1-7z" fill="none"/>
<path transform="translate(707,870)" d="m0 0 1 4-5 11h-1l-1-7 2-1 3-6z" fill="none"/>
<path transform="translate(599,701)" d="m0 0v3l-6 3-6 5-2-1 5-6z" fill="none"/>
<path transform="translate(358,1640)" d="m0 0 2 1-7 4h-3v4h-4v-6h6z" fill="#10183C"/>
<path transform="translate(662,1640)" d="m0 0 13 2 10 2v1l-12-1-9-1-2-1z" fill="none"/>
<path transform="translate(410,1537)" d="m0 0h4l1 4h-13v-2z" fill="none"/>
<path transform="translate(489,1602)" d="m0 0 8 1-3 3-7 2 1-4z" fill="none"/>
<path transform="translate(321,1507)" d="m0 0 1 2-2 4h3l-1 3-6 1-4-2 6-3z" fill="#10183C"/>
<path transform="translate(490,1389)" d="m0 0h4v3l-10 2-2-2z" fill="none"/>
<path transform="translate(631,1214)" d="m0 0 1 3-4 11-2-1v-6z" fill="none"/>
<path transform="translate(525,899)" d="m0 0v3l-8 10-3-1v-3l6-3z" fill="none"/>
<path transform="translate(399,1673)" d="m0 0h5l-2 2-10 3h-6l2-2z" fill="none"/>
<path transform="translate(1172,1657)" d="m0 0 14 1 2 1 1 4-6-1-3-2-8-2z" fill="none"/>
<path transform="translate(799,1580)" d="m0 0 9 1 1 2h-8v2l-7-1 1-2z" fill="none"/>
<path transform="translate(700,1351)" d="m0 0h2l-1 10-1 5h-2l1-13z" fill="#10183C"/>
<path transform="translate(646,1190)" d="m0 0h1l1 16h-2l-3-9 1-3z" fill="#10183C"/>
<path transform="translate(195,1141)" d="m0 0 2 4 1 1 2 10 2 4v3h-2l-5-17z" fill="#10183C"/>
<path transform="translate(541,1051)" d="m0 0 1 3-3 7-1-2-3 1 1-5z" fill="none"/>
<path transform="translate(324,1452)" d="m0 0 1 2-3 12-5 1 2-4 2-9z" fill="#10183C"/>
<path transform="translate(656,1343)" d="m0 0 3 1-3 14-1 3h-2l2-9z" fill="#10183C"/>
<path transform="translate(705,1127)" d="m0 0h6l1 3-14 1 1-2z" fill="none"/>
<path transform="translate(546,1007)" d="m0 0 2 4-4 2h-6l5-5z" fill="#10183C"/>
<path transform="translate(635,690)" d="m0 0h8l5 3v2l-6-1-7-3z" fill="none"/>
<path transform="translate(1108,1622)" d="m0 0h10v3h-10z" fill="#10183C"/>
<path transform="translate(392,1544)" d="m0 0h10l6 2v1l-17-1z" fill="none"/>
<path transform="translate(332,1490)" d="m0 0v3l-5 9-4 3 2-7 3-1 2-5z" fill="#10183C"/>
<path transform="translate(371,1638)" d="m0 0h3l-2 5-3 5h-1l-1-6h2z" fill="none"/>
<path transform="translate(734,1571)" d="m0 0h8l5 2-2 2-6 1 1-3-6-1z" fill="none"/>
<path transform="translate(656,1465)" d="m0 0 1 2-7 12h-3z" fill="none"/>
<path transform="translate(456,1448)" d="m0 0 2 1-6 4-5 1-3-1v-2l6-1z" fill="none"/>
<path transform="translate(527,1317)" d="m0 0h6l-5 5-6-1 3-3z" fill="#10183C"/>
<path transform="translate(557,1126)" d="m0 0m-2 1h2v2l-13 6-3-1z" fill="none"/>
<path transform="translate(562,1050)" d="m0 0h6l-2 2-5 3-5 6-1-2 1-2-2-1 5-3 3-1z" fill="#10183C"/>
<path transform="translate(1059,1687)" d="m0 0h2l-2 4-10 6h-2l1-3 10-5z" fill="#10183C"/>
<path transform="translate(501,1573)" d="m0 0h13l-1 3-13-1z" fill="none"/>
<path transform="translate(376,1538)" d="m0 0 3 2-2 1v2h-10l4-3z" fill="none"/>
<path transform="translate(470,1513)" d="m0 0h2l-2 4-8 3-4-1 9-4z" fill="none"/>
<path transform="translate(727,1108)" d="m0 0m-3 1h3v2l-12 5-2-1z" fill="#10183C"/>
<path transform="translate(660,687)" d="m0 0 5 1 3 6-1 2-7-7z" fill="none"/>
<path transform="translate(664,670)" d="m0 0 6 2 5 4v2l-5-2-6-4z" fill="none"/>
<path transform="translate(241,1673)" d="m0 0 9 1-3 2-1 3-4-2z" fill="none"/>
<path transform="translate(482,1409)" d="m0 0 4 1-6 3-9 1 1-2z" fill="none"/>
<path transform="translate(684,964)" d="m0 0 2 1-7 5h-2l-1 4h-3l1-4z" fill="#10183C"/>
<path transform="translate(575,695)" d="m0 0h2l-1 11-1 3h-2l1-10z" fill="none"/>
<path transform="translate(731,1712)" d="m0 0 5 1 5 4v2l-5-1-1-3-4-2z" fill="none"/>
<path transform="translate(446,1628)" d="m0 0 2 1v4h-9l3-3z" fill="none"/>
<path transform="translate(963,1598)" d="m0 0 4 1-1 1 3 2-10 1 2-4z" fill="none"/>
<path transform="translate(157,1584)" d="m0 0h6v2l-15 5v-2l9-3z" fill="none"/>
<path transform="translate(622,1551)" d="m0 0h5l-2 2-8 2h-6l1-2z" fill="none"/>
<path transform="translate(656,1535)" d="m0 0h2v3l-9 4-3-1z" fill="none"/>
<path transform="translate(534,1299)" d="m0 0 4 1-3 3-6 2v-3l1-2z" fill="#10183C"/>
<path transform="translate(616,679)" d="m0 0 6 1-3 2-9 2-4 1 3-3z" fill="none"/>
<path transform="translate(607,671)" d="m0 0 3 1-12 6 2-4z" fill="none"/>
<path transform="translate(533,1629)" d="m0 0 10 2v1h-15l1-2z" fill="none"/>
<path transform="translate(787,1578)" d="m0 0h7l1 2-3 1h-9l1-2z" fill="none"/>
<path transform="translate(511,907)" d="m0 0h2v5l-3 3-1 2-3-1z" fill="none"/>
<path transform="translate(659,713)" d="m0 0h9l-1 3h-8z" fill="none"/>
<path transform="translate(930,1609)" d="m0 0 7 1v2l-10 1 2-1z" fill="none"/>
<path transform="translate(918,1604)" d="m0 0 5 1v4h-7z" fill="none"/>
<path transform="translate(1034,234)" d="m0 0 4 2-1 5h-3l-1-6z" fill="none"/>
</svg>
